<svg width="1670" height="1184" viewBox="0 0 1670 1184" fill="none" xmlns="http://www.w3.org/2000/svg">
<g id="undraw_static_assets_rpm6 1" clip-path="url(#clip0)">
<path id="Vector" opacity="0.1" d="M1320.84 1016C1510.1 1016 1663.53 986.166 1663.53 949.361C1663.53 912.556 1510.1 882.72 1320.84 882.72C1131.58 882.72 978.156 912.556 978.156 949.361C978.156 986.166 1131.58 1016 1320.84 1016Z" fill="#D9CDB7"/>
<g id="Group" opacity="0.5">
<path id="Vector_2" opacity="0.5" d="M1027.32 167.998C1022.69 169.312 1017.04 172.735 1014.25 182.095C1008.78 200.443 1021.48 212.918 1017.3 232.044C1016.13 237.117 1013.93 241.891 1010.81 246.06C1005.7 252.987 1000.16 256.263 994.775 261.114C987.947 267.311 983.054 275.349 980.686 284.263C978.09 294.101 977.873 304.417 980.053 314.356C981.967 322.661 985.225 328.712 988.079 335.444C991.627 344.031 994.4 352.919 996.364 362C997.442 366.423 998.051 370.947 998.18 375.497C998.099 381.543 997.557 387.574 996.559 393.537L988.792 447.751C987.613 454.84 986.903 461.999 986.668 469.181C986.77 476.379 987.601 483.548 989.149 490.578C991.873 504.919 994.808 519.778 1001.05 527.37C1007.29 534.962 1017.93 532.237 1024.46 516.875C1030.67 502.177 1030.82 482.564 1036.3 466.861C1044.94 442.122 1062.11 438.797 1071.64 415.193C1080.79 392.482 1077.98 364.774 1082.62 338.949C1085.86 320.439 1093.01 303.568 1097.21 285.285C1103.24 258.956 1102.64 231.622 1097.83 211.376C1094.17 194.742 1086.24 179.346 1074.84 166.7C1070.8 162.239 1066.47 158.265 1061.4 157.859C1056 157.437 1051.28 164.234 1045.94 166.278C1039.78 168.696 1033.59 166.214 1027.32 167.998Z" fill="#D9CDB7"/>
<path id="Vector_3" opacity="0.5" d="M1056.55 159.238C1056.55 159.238 1047.4 393.39 1008.95 531.458" stroke="#535461" stroke-width="2" stroke-miterlimit="10"/>
<path id="Vector_4" opacity="0.5" d="M1014.02 183.198C1014.02 183.198 1055.12 220.639 1047.32 291.888" stroke="#535461" stroke-width="2" stroke-miterlimit="10"/>
<path id="Vector_5" opacity="0.5" d="M979.535 289.746C979.535 289.746 1047 303.324 1041.99 343.702" stroke="#535461" stroke-width="2" stroke-miterlimit="10"/>
<path id="Vector_6" opacity="0.5" d="M1097.94 210.89C1097.94 210.89 1070.64 234.801 1046.32 302.529" stroke="#535461" stroke-width="2" stroke-miterlimit="10"/>
<path id="Vector_7" opacity="0.5" d="M1071.27 415.583C1071.27 415.583 1052.64 430.183 1037.69 379.066" stroke="#535461" stroke-width="2" stroke-miterlimit="10"/>
<path id="Vector_8" opacity="0.5" d="M990.884 445.448C990.884 445.448 1028.87 440.484 1032.37 416.686" stroke="#535461" stroke-width="2" stroke-miterlimit="10"/>
</g>
<path id="Vector_9" d="M1119.15 10.95C1109.74 12.3451 1098.43 16.7089 1093.77 30.1572C1084.65 56.5347 1112.39 76.5043 1106 104.066C1104.09 111.651 1100.08 118.541 1094.42 123.938C1084.69 133.526 1073.57 137.711 1063.03 144.216C1052.49 150.721 1041.55 160.958 1036.61 176.661C1031.86 191.764 1033.91 208.44 1038.86 220.899C1043.8 233.358 1051.28 242.653 1057.96 252.905C1066.08 265.525 1072.86 278.953 1078.21 292.975C1080.91 299.365 1082.72 306.095 1083.59 312.977C1084.45 321.412 1083.37 330.48 1082.28 339.354L1072.63 418.422C1071.35 428.934 1070.05 439.608 1070.78 449.73C1071.61 461.394 1075.06 471.582 1078.47 481.526C1085.8 502.972 1093.64 525.326 1107.47 537.136C1121.3 548.946 1143 546.415 1154.69 524.45C1165.81 503.54 1163.77 474.68 1173.25 452.213C1188.2 416.799 1223.35 413.928 1240.26 380.315C1256.48 348.065 1247.41 306.812 1253.93 269.339C1258.6 242.491 1271.25 218.482 1277.73 192.056C1287.09 153.982 1282.6 113.67 1270.24 83.3663C1257.89 53.0631 1238.35 31.455 1217.39 14.8596C1208.5 7.80289 1199.08 1.42753 1188.53 0.259528C1177.31 -0.989588 1168.34 8.45178 1157.56 10.8365C1145.01 13.4482 1131.91 9.052 1119.15 10.95Z" fill="#F27A5F"/>
<path id="Vector_10" d="M1178.62 1.50867C1178.62 1.50867 1187.47 345.243 1124.21 544.015" stroke="#535461" stroke-width="2" stroke-miterlimit="10"/>
<path id="Vector_11" d="M1093.42 31.8119C1093.42 31.8119 1182.92 91.8343 1175.25 195.917" stroke="#535461" stroke-width="2" stroke-miterlimit="10"/>
<path id="Vector_12" d="M1034.68 184.577C1034.68 184.577 1175.93 212.577 1170.35 271.431" stroke="#535461" stroke-width="2" stroke-miterlimit="10"/>
<path id="Vector_13" d="M1270.4 82.4904C1270.4 82.4904 1216.72 114.465 1174.44 211.312" stroke="#535461" stroke-width="2" stroke-miterlimit="10"/>
<path id="Vector_14" d="M1239.42 380.77C1239.42 380.77 1202.62 400.236 1165.6 323.002" stroke="#535461" stroke-width="2" stroke-miterlimit="10"/>
<path id="Vector_15" d="M1076.59 415.177C1076.59 415.177 1154.62 412.371 1159.07 377.736" stroke="#535461" stroke-width="2" stroke-miterlimit="10"/>
<path id="Vector_16" d="M109.035 938.605C109.035 938.605 122.622 956.45 102.761 983.217C82.8991 1009.98 66.4911 1032.73 73.1548 1049.47C73.1548 1049.47 103.117 999.618 127.502 998.92C151.887 998.222 135.868 968.584 109.035 938.605Z" fill="#F27A5F"/>
<path id="Vector_17" opacity="0.1" d="M109.036 938.605C110.248 940.32 111.209 942.199 111.889 944.186C135.691 972.153 148.353 998.255 125.492 998.92C104.188 999.536 78.6355 1037.64 72.5068 1047.28C72.7091 1048.02 72.9526 1048.75 73.2364 1049.47C73.2364 1049.47 103.199 999.618 127.584 998.92C151.969 998.222 135.869 968.584 109.036 938.605Z" fill="black"/>
<path id="Vector_18" d="M134.296 961.268C134.296 967.53 133.599 972.624 132.675 972.624C131.75 972.624 131.053 967.546 131.053 961.268C131.053 954.99 131.929 958.024 132.788 958.024C133.647 958.024 134.296 955.006 134.296 961.268Z" fill="#FFD037"/>
<path id="Vector_19" d="M142.97 968.73C137.474 971.731 132.691 973.597 132.285 972.77C131.88 971.942 135.982 968.957 141.478 965.972C146.975 962.988 144.802 965.161 145.224 965.972C145.645 966.784 148.45 965.729 142.97 968.73Z" fill="#FFD037"/>
<path id="Vector_20" d="M37.3072 938.605C37.3072 938.605 23.7203 956.45 43.5818 983.217C63.4433 1009.98 79.8188 1032.71 73.1875 1049.45C73.1875 1049.45 43.2251 999.601 18.8401 998.904C-5.54491 998.206 10.4415 968.584 37.3072 938.605Z" fill="#F27A5F"/>
<path id="Vector_21" opacity="0.1" d="M37.3072 938.605C36.1232 940.325 35.1897 942.204 34.5347 944.186C10.7334 972.153 -1.92932 998.255 20.9316 998.92C42.2361 999.536 67.7885 1037.64 73.9171 1047.28C73.7149 1048.02 73.4713 1048.75 73.1875 1049.47C73.1875 1049.47 43.2251 999.618 18.8401 998.92C-5.54491 998.222 10.4415 968.584 37.3072 938.605Z" fill="black"/>
<path id="Vector_22" d="M12.0142 961.268C12.0142 967.53 12.7113 972.624 13.6355 972.624C14.5597 972.624 15.2568 967.546 15.2568 961.268C15.2568 954.99 14.3813 958.024 13.522 958.024C12.6627 958.024 12.0142 955.006 12.0142 961.268Z" fill="#FFD037"/>
<path id="Vector_23" d="M3.33978 968.73C8.83614 971.731 13.6191 973.597 14.0244 972.77C14.4298 971.942 10.3278 968.957 4.83142 965.972C-0.664938 962.988 1.50767 965.161 1.08612 965.972C0.664568 966.784 -2.14036 965.729 3.33978 968.73Z" fill="#FFD037"/>
<path id="Vector_24" d="M16.3433 1047.13C16.3433 1047.13 54.3313 1045.96 65.778 1037.8C77.2247 1029.65 124.146 1019.96 127.049 1032.94C129.951 1045.92 184.136 1098.01 141.252 1098.35C98.367 1098.69 41.6038 1091.66 30.1733 1084.7C18.7428 1077.74 16.3433 1047.13 16.3433 1047.13Z" fill="#A8A8A8"/>
<path id="Vector_25" opacity="0.2" d="M142.014 1093.84C99.1291 1094.18 42.3658 1087.15 30.9354 1080.19C22.2287 1074.89 18.7591 1055.86 17.6079 1047.08H16.3433C16.3433 1047.08 18.7428 1077.74 30.1733 1084.7C41.6038 1091.66 98.367 1098.7 141.252 1098.35C153.639 1098.25 157.903 1093.84 157.676 1087.32C155.957 1091.31 151.239 1093.77 142.014 1093.84Z" fill="black"/>
<path id="Vector_26" d="M1592.74 931.224C1595.71 928.8 1597.88 925.531 1598.95 921.848C1599.76 918.117 1598.17 913.656 1594.61 912.293C1590.62 910.768 1586.35 913.526 1583.13 916.332C1579.9 919.139 1576.19 922.318 1571.96 921.718C1574.13 919.745 1575.76 917.243 1576.68 914.454C1577.6 911.665 1577.78 908.685 1577.21 905.804C1577.03 904.61 1576.52 903.488 1575.75 902.559C1573.53 900.191 1569.53 901.213 1566.87 903.079C1558.44 909.016 1556.08 920.469 1556.04 930.786C1555.19 927.071 1555.91 923.194 1555.87 919.431C1555.84 915.667 1554.8 911.319 1551.59 909.34C1549.6 908.27 1547.37 907.739 1545.11 907.799C1541.31 907.653 1537.1 908.043 1534.5 910.817C1531.26 914.256 1532.12 920.047 1534.93 923.795C1537.73 927.542 1541.98 929.959 1545.9 932.587C1549.05 934.458 1551.73 937.014 1553.75 940.065C1553.99 940.489 1554.18 940.934 1554.33 941.396H1578.09C1583.41 938.682 1588.34 935.261 1592.74 931.224Z" fill="#F27A5F"/>
<path id="Vector_27" opacity="0.1" d="M237.9 779.189C289.491 844.824 269.451 940.714 236.668 1017.49C225.691 1043.21 213.272 1070.41 217.909 1097.97C223.567 1131.68 253.578 1156.37 285.227 1169.35C342.785 1193.17 411.692 1187.49 464.564 1154.57C510.269 1126.12 543.004 1079.85 589.488 1052.7C667.313 1007.27 766.312 1024.42 850.784 1055.71C910.547 1077.86 975.887 1106.67 1035.28 1083.52C1077.06 1067.3 1105.95 1027.6 1121.69 985.585C1129.3 965.291 1134.81 943.407 1149.26 927.185C1157.88 917.63 1169.13 910.833 1180.68 905.123C1286.07 852.871 1419.02 880.789 1521.29 822.908C1590.38 783.78 1634.61 709.952 1654.24 632.978C1673.88 556.003 1671.54 475.281 1666.56 396.019C1663.03 339.679 1656.69 279.543 1620.71 236.051C1582.66 190.06 1517.33 172.946 1458.3 181.69C1399.27 190.434 1345.73 221.743 1298.71 258.437C1239.87 304.298 1185.32 361.416 1113.07 380.007C1063.88 392.661 1012.12 385.734 961.376 383.349C876.547 379.342 791.702 388.216 707.344 397.949C626.585 407.293 545.209 417.578 468.309 443.858C413.864 462.465 370.218 496.224 318.805 519.811C285.292 535.19 248.747 539.44 217.033 559.02C177.943 583.143 142.127 625.11 152.179 674.198C161.616 720.935 210.499 744.36 237.9 779.189Z" fill="#D9CDB7"/>
<path id="Vector_28" opacity="0.1" d="M895.549 779.157C1278.5 779.157 1588.95 749.32 1588.95 712.515C1588.95 675.71 1278.5 645.874 895.549 645.874C512.595 645.874 202.149 675.71 202.149 712.515C202.149 749.32 512.595 779.157 895.549 779.157Z" fill="#D9CDB7"/>
<path id="Vector_29" opacity="0.1" d="M362.63 1163.62C551.89 1163.62 705.317 1133.79 705.317 1096.98C705.317 1060.18 551.89 1030.34 362.63 1030.34C173.369 1030.34 19.9424 1060.18 19.9424 1096.98C19.9424 1133.79 173.369 1163.62 362.63 1163.62Z" fill="#D9CDB7"/>
<path id="Vector_30" d="M712.937 691.735L707.506 699.635C707.506 699.635 713.424 707.535 713.991 708.525C714.559 709.514 731.259 708.038 731.259 708.038L732.734 702.117L730.27 695.206L712.937 691.735Z" fill="#E6E6F0"/>
<path id="Vector_31" d="M530.325 687.29L519.462 689.253L526.369 702.604L533.779 706.546L540.686 711.477L542.664 706.059L537.719 695.677L530.325 687.29Z" fill="#FDC2CC"/>
<path id="Vector_32" d="M708.008 558.89C708.008 558.89 765.76 572.712 776.607 588.09C776.607 588.09 786.481 596.494 776.607 611.791C766.733 627.089 752.919 661.675 752.919 661.675C752.919 661.675 743.045 695.255 739.106 697.721C735.166 700.186 712.451 702.166 710.473 692.854C710.473 692.854 723.297 672.609 723.297 663.216C723.297 653.823 744.521 609.39 744.521 609.39C744.521 609.39 696.156 603.956 680.851 607.411C665.545 610.867 687.774 553.456 708.008 558.89Z" fill="#565171"/>
<path id="Vector_33" opacity="0.1" d="M708.008 558.89C708.008 558.89 765.76 572.712 776.607 588.09C776.607 588.09 786.481 596.494 776.607 611.791C766.733 627.089 752.919 661.675 752.919 661.675C752.919 661.675 743.045 695.255 739.106 697.721C735.166 700.186 712.451 702.166 710.473 692.854C710.473 692.854 723.297 672.609 723.297 663.216C723.297 653.823 744.521 609.39 744.521 609.39C744.521 609.39 696.156 603.956 680.851 607.411C665.545 610.867 687.774 553.456 708.008 558.89Z" fill="black"/>
<path id="Vector_34" d="M696.156 572.225C696.043 575.096 695.735 578.325 695.297 581.796C692.135 606.941 681.84 644.333 681.84 644.333C681.84 644.333 671.479 666.558 668.512 680.882C665.545 695.206 645.311 698.726 645.311 698.726C645.311 698.726 590.023 705.215 578.674 702.685C567.324 700.154 549.49 710.098 540.669 708.606C531.849 707.113 526.353 686.381 526.353 686.381C541.661 686.471 556.81 683.274 570.778 677.005C593.477 666.639 626.066 671.57 626.066 671.57C628.496 670.864 630.757 669.668 632.709 668.055C634.661 666.443 636.262 664.448 637.415 662.194C640.869 654.78 640.869 609.844 639.879 606.876C633.394 587.409 633.929 574.918 635.794 567.634C636.418 564.453 637.822 561.476 639.879 558.971L696.156 572.225Z" fill="#565171"/>
<path id="Vector_35" opacity="0.1" d="M696.156 572.225C696.043 575.096 695.735 578.325 695.297 581.796C690.336 582.186 676.424 582.559 666.113 576.183C656.385 570.213 642.23 568.186 635.858 567.553C636.483 564.371 637.886 561.395 639.944 558.89L696.156 572.225Z" fill="black"/>
<path id="Vector_36" d="M702.982 566.044C700.68 572.533 697.145 580.142 697.145 580.142C697.145 580.142 678.889 582.607 666.048 574.707C653.207 566.807 632.486 565.817 632.486 565.817C635.843 563.757 638.112 557.495 639.523 552.012C640.311 548.912 640.928 545.771 641.371 542.603C641.371 542.603 702.074 554.948 704.604 556.927C705.544 557.706 704.539 561.632 702.982 566.044Z" fill="#E6E6F0"/>
<path id="Vector_37" d="M811.158 357.896L737.533 402.361L730.221 406.774V385.052L735.296 382.619L797.344 352.948C797.344 352.948 800.311 299.123 808.207 307.526C816.103 315.929 811.158 357.896 811.158 357.896Z" fill="#FDC2CC"/>
<path id="Vector_38" opacity="0.1" d="M737.533 402.361L730.221 406.774V385.052L735.296 382.619C735.631 389.24 736.379 395.833 737.533 402.361Z" fill="black"/>
<path id="Vector_39" d="M680.867 410.31L733.674 379.699C733.674 379.699 734.663 409.337 740.581 413.766C740.581 413.766 718.871 420.255 710.472 434.011L680.867 410.31Z" fill="#B45181"/>
<path id="Vector_40" opacity="0.1" d="M680.867 410.31L733.674 379.699C733.674 379.699 734.663 409.337 740.581 413.766C740.581 413.766 718.871 420.255 710.472 434.011L680.867 410.31Z" fill="black"/>
<path id="Vector_41" d="M810.688 436.412C810.688 436.412 785.573 447.362 768.938 451.385C765.195 452.515 761.28 452.965 757.378 452.715C746.029 450.736 760.345 436.493 760.345 436.493L766.312 435.568L798.35 430.572C798.35 430.572 801.803 381.191 807.721 385.15C813.639 389.108 810.688 436.412 810.688 436.412Z" fill="#FDC2CC"/>
<path id="Vector_42" d="M704.555 391.963C704.555 391.963 683.331 407.763 691.227 427.522C699.123 447.281 650.256 415.664 650.256 415.664C650.256 415.664 666.048 391.963 669.501 374.183C672.955 356.404 704.555 391.963 704.555 391.963Z" fill="#FDC2CC"/>
<path id="Vector_43" opacity="0.1" d="M702.982 566.044C693.803 562.585 684.209 560.349 674.447 559.393C660.179 557.771 647.111 555.029 639.539 552.012C640.327 548.912 640.944 545.771 641.387 542.603C641.387 542.603 702.09 554.948 704.62 556.927C705.544 557.706 704.539 561.632 702.982 566.044Z" fill="black"/>
<path id="Vector_44" opacity="0.1" d="M768.922 451.385C765.179 452.515 761.264 452.965 757.362 452.715C746.013 450.736 760.329 436.493 760.329 436.493L766.296 435.568C768.792 439.413 771.338 445.415 768.922 451.385Z" fill="black"/>
<path id="Vector_45" d="M670.004 400.853C670.004 400.853 650.758 400.366 643.851 408.266C636.945 416.167 638.42 437.466 638.42 437.466C638.42 437.466 636.977 480.115 647.791 503.978C648.148 504.748 648.189 505.627 647.905 506.427C647.791 506.719 647.791 506.541 647.791 506.541C647.791 506.541 640.884 537.655 633.977 543.09C627.071 548.524 648.78 554.948 674.511 557.901C700.242 560.853 710.537 568.267 710.537 568.267C710.537 568.267 714.98 563.4 715.401 552.466C715.823 541.532 708.543 462.092 708.543 462.092C708.543 462.092 735.684 469.003 751.979 460.616C751.979 460.616 759.388 464.574 766.295 453.705C773.202 442.836 761.431 430.994 761.431 430.994C761.431 430.994 750.568 441.863 720.46 427.538C690.351 413.214 679.359 400.366 670.004 400.853Z" fill="#D9CDB7"/>
<path id="Vector_46" d="M522.429 688.279H516.511V696.682L522.429 710.017C522.429 710.017 530.325 711.493 530.828 711.493C531.33 711.493 537.735 710.017 537.735 710.017L539.713 706.562C539.713 706.562 517.987 698.142 522.429 688.279Z" fill="#E6E6F0"/>
<path id="Vector_47" d="M708.008 696.18L699.124 715.938L736.641 733.783L766.263 734.772C766.263 734.772 768.728 727.862 758.854 724.406L750.958 722.93C750.958 722.93 740.597 704.161 739.608 695.352C739.608 695.352 729.734 697.331 728.259 704.729C728.243 704.566 714.429 711.477 708.008 696.18Z" fill="#B45181"/>
<path id="Vector_48" d="M517.987 686.3L514.971 688.766L501.708 699.635L532.303 740.191C532.303 740.191 549.57 747.604 557.483 740.191C557.483 740.191 562.347 735.324 551.565 731.301C551.565 731.301 543.166 732.777 543.166 724.39C543.166 716.003 545.144 707.113 548.03 705.134C548.03 705.134 540.621 702.668 538.659 704.648C537.149 706.312 535.823 708.134 534.703 710.082C534.703 710.082 516.998 703.09 517.987 686.3Z" fill="#B45181"/>
<path id="Vector_49" opacity="0.1" d="M668.528 375.173C668.027 377.678 667.366 380.149 666.55 382.57C669.114 388.741 673.981 393.669 680.117 396.307C686.254 398.945 693.176 399.086 699.415 396.7C700.716 395.357 702.109 394.105 703.582 392.953C703.582 392.953 671.982 357.393 668.528 375.173Z" fill="black"/>
<path id="Vector_50" opacity="0.1" d="M665.805 441.133C665.805 441.133 681.11 461.378 703.323 461.881L665.805 441.133Z" fill="black"/>
<g id="Group_2" opacity="0.1">
<path id="Vector_51" opacity="0.1" d="M757.281 460.956C756.969 460.869 756.666 460.755 756.373 460.616C755.898 460.864 755.411 461.097 754.914 461.313C755.715 461.298 756.511 461.178 757.281 460.956Z" fill="black"/>
<path id="Vector_52" opacity="0.1" d="M762.534 433.021C761.997 432.331 761.423 431.671 760.816 431.042C760.816 431.042 757.573 434.287 749.563 434.903C753.976 435.342 758.428 434.696 762.534 433.021Z" fill="black"/>
<path id="Vector_53" opacity="0.1" d="M712.938 462.092L713.035 463.146C719.546 464.353 726.162 464.897 732.783 464.769C726.096 464.525 719.45 463.628 712.938 462.092Z" fill="black"/>
<path id="Vector_54" opacity="0.1" d="M678.889 557.933C653.223 554.964 631.514 548.557 638.356 543.122C645.198 537.688 652.169 506.573 652.169 506.573C652.169 506.573 652.169 506.752 652.283 506.46C652.567 505.66 652.526 504.781 652.169 504.01C641.355 480.082 642.798 437.499 642.798 437.499C642.798 437.499 641.323 416.264 648.23 408.299C653.369 402.41 665.351 401.193 671.139 400.95C670.6 400.908 670.057 400.908 669.518 400.95C669.518 400.95 650.272 400.463 643.366 408.364C636.459 416.264 637.934 437.564 637.934 437.564C637.934 437.564 636.491 480.212 647.305 504.075C647.662 504.845 647.703 505.725 647.419 506.525C647.305 506.817 647.305 506.638 647.305 506.638C647.305 506.638 640.447 537.655 633.475 543.09C626.504 548.524 648.278 554.948 674.009 557.901C699.74 560.853 710.035 568.267 710.035 568.267C710.552 567.647 711.008 566.979 711.397 566.271C706.387 563.854 696.075 559.88 678.889 557.933Z" fill="black"/>
</g>
<path id="Vector_55" d="M691.227 397.397C705.402 397.397 716.893 385.9 716.893 371.718C716.893 357.535 705.402 346.038 691.227 346.038C677.053 346.038 665.562 357.535 665.562 371.718C665.562 385.9 677.053 397.397 691.227 397.397Z" fill="#FDC2CC"/>
<path id="Vector_56" opacity="0.1" d="M727.756 360.232C725.632 365.553 719.293 367.565 713.732 368.943C705.787 370.89 697.226 372.804 689.622 369.787C688.637 369.234 687.5 369.012 686.379 369.154C685.476 369.517 684.722 370.174 684.239 371.02C675.857 382.96 677.219 398.874 675.046 413.311C674.365 417.805 673.214 422.445 670.182 425.803C664.281 432.292 653.142 432.048 647.71 438.943C644.127 443.485 644.095 449.795 644.127 455.587C644.127 461.762 644.073 467.943 643.965 474.129C643.868 478.184 643.673 482.386 641.841 485.987C638.728 492.087 631.789 494.991 625.385 497.343C621.396 498.835 617.278 500.344 612.997 499.938C608.717 499.533 604.437 496.694 603.886 492.411C603.124 486.604 609.106 482.548 613.224 478.363C619.807 471.695 622.515 461.995 622.758 452.618C622.989 448.831 622.438 445.037 621.137 441.473C619.629 437.791 616.937 434.692 615.316 431.059C610.322 419.865 616.483 406.92 623.86 397.122C631.238 387.323 640.301 377.768 641.874 365.618C642.011 362.989 642.385 360.377 642.992 357.815C644.127 354.279 646.819 344.513 649.786 342.274C654.536 338.694 660.113 336.373 665.999 335.526C670.555 334.86 675.208 335.104 679.732 334.228C685.018 333.206 689.93 330.691 695.216 329.75C706.646 327.723 719.05 341.009 724.06 351.488C725.438 354.7 729.053 356.971 727.756 360.232Z" fill="black"/>
<path id="Vector_57" d="M727.756 359.243C725.632 364.563 719.293 366.575 713.732 367.954C705.787 369.901 697.226 371.815 689.622 368.798C688.637 368.244 687.5 368.022 686.379 368.165C685.476 368.527 684.722 369.185 684.239 370.03C675.857 381.97 677.219 397.884 675.046 412.322C674.365 416.815 673.214 421.455 670.182 424.813C664.281 431.302 653.142 431.059 647.71 437.953C644.127 442.495 644.095 448.806 644.127 454.597C644.127 460.772 644.073 466.953 643.965 473.139C643.868 477.195 643.673 481.396 641.841 484.998C638.728 491.097 631.789 494.001 625.385 496.353C621.396 497.846 617.278 499.355 612.997 498.949C608.717 498.543 604.437 495.705 603.886 491.422C603.124 485.614 609.106 481.559 613.224 477.373C619.807 470.706 622.515 461.005 622.758 451.629C622.989 447.842 622.438 444.048 621.137 440.484C619.629 436.801 616.937 433.703 615.316 430.069C610.322 418.876 616.483 405.93 623.86 396.132C631.238 386.334 640.301 376.779 641.874 364.628C642.011 361.999 642.385 359.387 642.992 356.825C644.127 353.289 646.819 343.523 649.786 341.285C654.536 337.704 660.113 335.383 665.999 334.536C670.555 333.871 675.208 334.114 679.732 333.238C685.018 332.216 689.93 329.702 695.216 328.761C706.646 326.733 719.05 340.019 724.06 350.499C725.438 353.711 729.053 355.982 727.756 359.243Z" fill="#D93B3A"/>
<path id="Vector_58" d="M810.688 309.878H1237.38V736.768H810.688V309.878Z" fill="#F7DF1E"/>
<path id="Vector_59" d="M922.901 666.623L955.555 646.848C961.862 658.025 967.586 667.482 981.335 667.482C994.516 667.482 1002.82 662.324 1002.82 642.273V505.86H1042.91V642.824C1042.91 684.37 1018.59 703.285 983.053 703.285C950.983 703.285 932.37 686.657 922.917 666.606L922.901 666.623ZM1064.69 662.307L1097.33 643.392C1105.92 657.441 1117.09 667.726 1136.85 667.726C1153.47 667.726 1164.06 659.42 1164.06 647.951C1164.06 634.194 1153.18 629.328 1134.88 621.297L1124.86 616.999C1095.93 604.686 1076.73 589.21 1076.73 556.538C1076.73 526.446 1099.64 503.524 1135.44 503.524C1160.93 503.524 1179.22 512.413 1192.43 535.611L1161.22 555.678C1154.35 543.349 1146.91 538.483 1135.44 538.483C1123.7 538.483 1116.25 545.929 1116.25 555.678C1116.25 567.715 1123.69 572.582 1140.87 580.012L1150.89 584.311C1184.94 598.911 1204.17 613.819 1204.17 647.35C1204.17 683.461 1175.81 703.236 1137.7 703.236C1100.41 703.236 1076.41 685.392 1064.74 662.259" fill="black"/>
<path id="Vector_60" d="M1424.54 973.678C1424.54 973.678 1407.89 974.846 1397.61 957.001C1395.61 953.408 1393.23 950.032 1390.53 946.927C1387.21 941.483 1385.49 935.216 1385.55 928.84C1386.12 915.618 1372.34 843.202 1372.34 843.202C1372.34 843.202 1374.06 815.624 1360.27 798.38C1351.2 787.024 1338.14 754.58 1330.28 733.62C1330.81 734.091 1331.44 734.425 1332.13 734.594L1331.8 732.793H1332.13L1328.06 710.423C1322.13 703.608 1317.14 696.036 1313.21 687.906L1314.13 687.711L1326.32 685.148C1326.32 685.148 1346.14 656.97 1347.4 643.116H1349.02H1351.31C1369.65 643.016 1387.98 643.975 1406.21 645.988C1406.21 645.907 1406.08 645.55 1405.92 644.982C1405.14 642.194 1404.55 639.36 1404.13 636.498H1405.27L1416.62 635.751C1416.62 635.751 1455.67 592.081 1441.31 584.035C1426.94 575.988 1412.01 620.243 1412.01 620.243L1407.15 621.119L1405.83 621.362C1405.96 621.168 1406.09 620.989 1406.24 620.811C1406.39 620.632 1342.49 617.956 1332.65 602.415C1332.65 602.415 1304.5 579.995 1303.35 565.103C1303.14 562.014 1302.09 559.041 1300.3 556.511C1298.52 553.982 1296.07 551.993 1293.23 550.763C1289.75 549.102 1285.9 548.381 1282.06 548.67L1268.88 549.579L1269.8 551.201H1269.43C1268.6 549.305 1267.91 547.354 1267.36 545.361H1267.63C1267.53 544.955 1267.45 544.55 1267.37 544.144C1271.41 543.191 1275.22 541.436 1278.57 538.984C1281.92 536.532 1284.74 533.432 1286.87 529.868C1289 526.304 1290.4 522.348 1290.97 518.235C1291.54 514.123 1291.29 509.936 1290.22 505.924C1291.51 506.09 1292.81 506.052 1294.09 505.811C1298.96 504.821 1302.38 499.89 1302.51 494.958C1302.51 494.634 1302.51 494.309 1302.51 494.001C1302.51 494.001 1302.51 493.871 1302.51 493.806C1302.46 491.328 1301.86 488.892 1300.75 486.675C1299.64 484.458 1298.05 482.517 1296.1 480.991C1293.48 478.801 1290.33 477.243 1288 474.81C1285.16 471.906 1283.6 468.013 1281.4 464.59C1277.7 458.928 1272.22 454.663 1265.83 452.472C1261.08 450.85 1255.24 450.688 1251.6 454.094C1249.72 455.862 1248.63 458.426 1246.52 459.918C1243.49 462.092 1239.37 461.443 1235.66 461.881C1232.3 462.398 1229.11 463.736 1226.39 465.776C1223.67 467.816 1221.49 470.495 1220.04 473.577C1218.22 477.437 1217.35 481.673 1217.48 485.939C1217.44 488.865 1217.79 491.783 1218.52 494.618C1219.23 497.44 1220.29 500.166 1221.07 502.988C1222.69 508.828 1223.06 514.976 1224.92 520.735C1226.18 525.01 1228.68 528.812 1232.11 531.653L1231.56 534.021C1231.2 534.021 1222.25 536.017 1216.07 549.53C1211.21 560.188 1194.65 571.187 1187.37 575.632C1186.02 576.463 1184.84 577.557 1183.91 578.849C1182.98 580.142 1182.32 581.607 1181.96 583.159C1181.26 586.294 1180.95 589.503 1181.04 592.714C1180.91 599.641 1182.35 609.228 1187.91 621.378C1200.54 648.956 1209.73 661.026 1209.73 661.026C1209.73 661.026 1210.43 669.478 1210.48 678.384C1210.48 685.018 1209.99 691.621 1208.58 694.93C1207.38 697.721 1206.96 704.842 1207.06 712.986C1207.06 728.592 1208.58 748.951 1208.58 748.951C1208.58 748.951 1212.98 749.794 1219.77 750.784L1224 825.276C1224.53 834.298 1221.64 843.187 1215.89 850.161C1212.93 853.83 1209.5 857.101 1205.7 859.895C1193.63 868.509 1167.79 959.321 1167.79 959.321C1167.79 959.321 1169.05 959.321 1171.13 959.565L1163.18 981.74C1163.18 981.74 1194.93 1006.07 1214.24 999.423C1216.33 998.741 1218.53 998.433 1220.73 998.514C1224.54 998.514 1232.69 995.497 1228.15 991.522C1219.39 983.445 1211.12 974.842 1203.39 965.761C1204.01 966.065 1204.61 966.418 1205.18 966.816V966.637L1205.45 966.816C1205.45 966.816 1205.45 965.924 1205.66 964.464L1205.39 964.366C1205.97 958.396 1207.82 943.277 1211.48 941.525C1216.07 939.222 1249.97 871.98 1249.97 871.98L1283.86 784.623C1283.86 784.623 1310.86 831.181 1333.83 839.211V858.678C1333.83 858.678 1346.46 916.154 1351.07 922.464C1355.67 928.775 1351.07 954.065 1351.07 954.065C1351.97 955.106 1353.01 956.022 1354.16 956.79L1350.48 977.62C1350.48 977.62 1376.91 976.468 1421.71 990.257C1421.67 990.338 1438.91 982.876 1424.54 973.678ZM1318.87 673.111L1313.27 674.506L1312.17 674.782C1312.06 674.085 1311.97 673.679 1311.97 673.679C1310.69 674.259 1309.31 674.594 1307.91 674.669C1305.92 668.385 1304.78 661.867 1304.5 655.283C1302.62 647.404 1301.47 639.366 1301.08 631.274C1301.08 627.089 1301.78 623.439 1303.35 621.378L1305.21 621.524L1306.51 622.757L1306.61 622.838L1307.27 623.439L1307.97 624.055L1308.08 624.152L1308.83 624.818L1308.96 624.931L1309.72 625.58L1310.58 626.294L1310.77 626.456L1311.68 627.186L1312.57 627.9L1312.79 628.062L1313.77 628.808L1313.99 628.954L1314.93 629.652L1315.09 629.765L1316.16 630.528L1316.42 630.706L1317.55 631.485H1317.65L1318.75 632.215L1319.01 632.393L1320.19 633.156L1320.45 633.318L1321.56 633.999L1321.77 634.129L1323.03 634.875L1323.34 635.054L1324.65 635.784H1324.75L1326.03 636.465L1326.34 636.627L1327.7 637.309L1327.98 637.439L1329.24 638.023L1329.49 638.136L1330.91 638.753L1331.25 638.899L1332.73 639.499C1323.57 649.589 1318.87 673.111 1318.87 673.111Z" fill="url(#paint0_linear)"/>
<path id="Vector_61" d="M1177.19 945.905L1166.54 975.641C1166.54 975.641 1195.72 998.028 1214.69 993.388C1217.55 992.676 1220.46 992.204 1223.4 991.977C1227.32 991.685 1234.09 988.813 1229.89 985.18C1216.43 973.402 1198.48 951.518 1198.48 951.518L1177.19 945.905Z" fill="#4F4D59"/>
<path id="Vector_62" d="M1354.39 943.099L1349.35 971.715C1349.35 971.715 1375.14 970.596 1418.89 984.06C1418.89 984.06 1435.72 976.76 1421.69 967.838C1421.69 967.838 1405.48 968.957 1395.34 951.616C1385.21 934.274 1379.13 936.464 1379.13 936.464L1354.39 943.099Z" fill="#4F4D59"/>
<path id="Vector_63" d="M1220.89 735.519L1225.75 822.6C1226.28 831.879 1223.21 841.005 1217.18 848.069C1214.45 851.312 1211.34 854.215 1207.92 856.715C1196.15 865.135 1170.9 953.773 1170.9 953.773C1170.9 953.773 1199.5 955.396 1207.35 961.073C1207.35 961.073 1208.97 938.638 1213.51 936.383C1218.05 934.128 1251.08 868.493 1251.08 868.493L1284.17 783.212C1284.17 783.212 1310.52 828.634 1332.96 836.519V855.596C1332.96 855.596 1345.29 911.709 1349.78 917.873C1354.28 924.038 1349.78 948.696 1349.78 948.696C1349.78 948.696 1362.76 964.918 1392.39 947.576C1392.39 947.576 1382.86 936.918 1383.43 924.005C1383.99 911.092 1370.46 840.412 1370.46 840.412C1370.46 840.412 1372.08 813.483 1358.69 796.612C1345.29 779.741 1323.03 715.289 1323.03 715.289L1307.6 682.066L1220.89 735.519Z" fill="#C48C96"/>
<g id="Group_3" opacity="0.1">
<path id="Vector_64" opacity="0.1" d="M1176.35 953.757C1176.35 953.757 1201.58 865.118 1213.36 856.699C1216.98 854.048 1220.25 850.952 1223.09 847.485C1228.85 840.516 1231.74 831.623 1231.2 822.6L1226.25 735.502L1308.94 684.499L1307.82 682.082L1221.21 735.519L1226.16 822.616C1226.7 831.639 1223.8 840.533 1218.05 847.501C1215.21 850.968 1211.94 854.064 1208.32 856.715C1196.57 865.118 1171.31 953.757 1171.31 953.757C1171.31 953.757 1199.91 955.379 1207.75 961.057C1207.75 961.057 1207.76 960.181 1207.97 958.77C1196.92 954.974 1176.35 953.757 1176.35 953.757Z" fill="black"/>
<path id="Vector_65" opacity="0.1" d="M1355.23 948.712C1355.23 948.712 1359.72 924.022 1355.23 917.89C1350.74 911.758 1338.4 855.612 1338.4 855.612V836.502C1315.98 828.651 1289.62 783.196 1289.62 783.196L1287.67 788.29C1295.27 800.359 1315.56 830.305 1333.38 836.535V855.612C1333.38 855.612 1345.71 911.725 1350.21 917.89C1354.7 924.054 1350.21 948.712 1350.21 948.712C1350.21 948.712 1356.46 956.596 1370.28 955.525C1359.95 954.666 1355.23 948.712 1355.23 948.712Z" fill="black"/>
</g>
<path id="Vector_66" d="M1413.83 637.893L1402.82 638.623L1397.01 639.012V624.98L1404.63 623.601L1409.35 622.741C1409.35 622.741 1423.95 579.541 1437.95 587.393C1451.96 595.244 1413.83 637.893 1413.83 637.893Z" fill="#714B4F"/>
<path id="Vector_67" d="M1237.2 522.244C1237.2 522.244 1229.9 550.292 1227.66 567.667C1225.43 585.041 1279.81 571.041 1279.81 571.041C1279.81 571.041 1259.05 545.799 1270.84 532.334L1237.2 522.244Z" fill="#714B4F"/>
<path id="Vector_68" d="M1296.07 639.045L1297.19 649.703L1279.81 648.583L1262.43 633.432L1245.05 584.603L1233.86 567.196L1225.44 556.538L1228.82 543.56C1228.82 543.56 1230.36 544.907 1232.95 546.886C1241.5 553.375 1261.52 567.018 1276.16 563.254C1276.84 563.083 1277.5 562.872 1278.15 562.621L1300.03 600.208L1296.07 639.045Z" fill="#E6E6F0"/>
<path id="Vector_69" opacity="0.1" d="M1233.27 540.267C1233.27 540.267 1224.31 541.889 1218.13 555.419C1213.4 565.769 1197.38 576.508 1190.23 580.839C1188.86 581.672 1187.68 582.771 1186.75 584.069C1185.81 585.367 1185.15 586.839 1184.8 588.399C1183.35 594.79 1182.8 606.714 1190.65 623.861C1202.99 650.79 1211.95 662.567 1211.95 662.567C1211.95 662.567 1214.19 689.496 1210.84 697.348C1207.48 705.199 1210.84 748.399 1210.84 748.399C1210.84 748.399 1269.71 759.625 1289.34 748.399C1308.98 737.173 1306.17 693.973 1306.17 693.973C1306.17 693.973 1324.67 733.247 1331.4 734.367L1327.47 712.483C1327.47 712.483 1305.6 688.912 1304.48 658.625C1304.48 658.625 1297.76 631.128 1303.37 623.844C1303.37 623.844 1398.13 631.696 1403.74 624.964C1403.74 624.964 1341.5 622.157 1331.97 607.006C1331.97 607.006 1304.48 585.122 1303.37 570.538C1303.2 567.8 1302.34 565.149 1300.87 562.835C1299.4 560.522 1297.36 558.623 1294.95 557.317C1291.14 555.146 1286.76 554.168 1282.39 554.51L1269.72 555.386C1269.72 555.386 1291.59 594.093 1290.48 599.186C1289.36 604.28 1291.59 645.193 1291.59 645.193C1291.59 645.193 1266.29 590.767 1255.15 584.603C1244.01 578.438 1231.02 553.066 1231.02 553.066L1233.26 540.251" fill="black"/>
<path id="Vector_70" opacity="0.1" d="M1296.07 639.045L1297.19 649.703L1279.81 648.583L1262.43 633.432L1245.05 584.603L1233.86 567.196L1225.44 556.538L1228.82 543.56C1228.82 543.56 1230.36 544.907 1232.95 546.886L1232.17 551.315C1232.17 551.315 1245.14 576.654 1256.28 582.834C1267.42 589.015 1292.73 643.425 1292.73 643.425C1292.73 643.425 1290.49 602.463 1291.61 597.418C1292.37 593.995 1282.55 575.08 1276.16 563.254C1276.84 563.083 1277.5 562.872 1278.15 562.621L1300.03 600.208L1296.07 639.045Z" fill="black"/>
<path id="Vector_71" opacity="0.1" d="M1402.82 638.623L1397.01 639.012V624.98L1404.64 623.601C1401.98 627.121 1402.07 633.351 1402.82 638.623Z" fill="black"/>
<path id="Vector_72" d="M1233.27 538.596C1233.27 538.596 1224.31 540.219 1218.13 553.748C1213.4 564.098 1197.38 574.837 1190.23 579.168C1188.86 580.001 1187.68 581.1 1186.75 582.398C1185.81 583.696 1185.15 585.169 1184.8 586.728C1183.35 593.119 1182.8 605.043 1190.65 622.19C1202.99 649.119 1211.95 660.896 1211.95 660.896C1211.95 660.896 1214.19 687.825 1210.84 695.677C1207.48 703.528 1210.84 746.728 1210.84 746.728C1210.84 746.728 1269.71 757.954 1289.34 746.728C1308.98 735.502 1306.17 692.302 1306.17 692.302C1306.17 692.302 1324.65 731.512 1331.4 732.712L1327.47 710.828C1327.47 710.828 1305.6 687.257 1304.48 656.97C1304.48 656.97 1297.76 629.473 1303.37 622.19C1303.37 622.19 1325.24 645.761 1349.91 645.193C1367.9 645.085 1385.87 646.022 1403.74 647.999C1403.74 647.999 1398.13 630.041 1403.74 623.309C1403.74 623.309 1341.5 620.503 1331.97 605.351C1331.97 605.351 1304.48 583.467 1303.37 568.883C1303.2 566.145 1302.34 563.494 1300.87 561.181C1299.4 558.867 1297.36 556.968 1294.95 555.662C1291.14 553.491 1286.76 552.514 1282.39 552.856L1269.72 553.732C1269.72 553.732 1291.59 592.438 1290.48 597.532C1289.36 602.626 1291.59 643.538 1291.59 643.538C1291.59 643.538 1266.29 589.08 1255.15 582.916C1244.01 576.751 1231.02 551.444 1231.02 551.444L1233.26 538.629" fill="#032E3F"/>
<path id="Vector_73" opacity="0.1" d="M1220.89 597.499C1220.89 597.499 1234.34 642.922 1242.19 648.551C1250.04 654.18 1297.71 682.78 1311.73 676.048C1311.73 676.048 1315.1 692.886 1310.11 696.812C1310.11 696.812 1257.82 694.768 1257.4 694.574C1257.4 694.574 1223.19 690.08 1217.58 673.257C1211.97 656.435 1205.24 627.835 1205.24 627.835L1220.89 597.499Z" fill="black"/>
<path id="Vector_74" d="M1292.71 648.843C1293.8 648.843 1294.68 647.586 1294.68 646.036C1294.68 644.486 1293.8 643.23 1292.71 643.23C1291.63 643.23 1290.75 644.486 1290.75 646.036C1290.75 647.586 1291.63 648.843 1292.71 648.843Z" fill="#BA7855"/>
<path id="Vector_75" d="M1298.31 668.472C1299.39 668.472 1300.27 667.215 1300.27 665.665C1300.27 664.115 1299.39 662.859 1298.31 662.859C1297.22 662.859 1296.35 664.115 1296.35 665.665C1296.35 667.215 1297.22 668.472 1298.31 668.472Z" fill="#BA7855"/>
<g id="Group_4" opacity="0.1">
<path id="Vector_76" opacity="0.1" d="M1214.78 746.112C1214.78 746.112 1211.4 702.912 1214.78 695.06C1218.15 687.209 1215.89 660.28 1215.89 660.28C1215.89 660.28 1206.93 648.502 1194.59 621.573C1186.73 604.426 1187.29 592.503 1188.74 586.111C1189.09 584.552 1189.75 583.08 1190.69 581.782C1191.62 580.483 1192.8 579.385 1194.17 578.552C1201.32 574.172 1217.32 563.481 1222.07 553.131C1225.56 545.539 1229.92 541.695 1233.06 539.78L1233.27 538.548C1233.27 538.548 1224.31 540.17 1218.13 553.699C1213.4 564.049 1197.38 574.788 1190.23 579.119C1188.86 579.953 1187.68 581.051 1186.75 582.349C1185.81 583.648 1185.15 585.12 1184.8 586.679C1183.35 593.071 1182.8 604.994 1190.65 622.141C1202.99 649.07 1211.95 660.847 1211.95 660.847C1211.95 660.847 1214.19 687.776 1210.84 695.628C1207.48 703.48 1210.84 746.679 1210.84 746.679C1210.84 746.679 1252.89 754.693 1277.76 750.394C1252.65 753.396 1214.78 746.112 1214.78 746.112Z" fill="black"/>
<path id="Vector_77" opacity="0.1" d="M1290.46 597.499C1289.7 600.955 1290.46 621.281 1291.09 633.74C1293.8 639.272 1295.5 642.954 1295.5 642.954C1295.5 642.954 1293.26 601.993 1294.38 596.948C1295.45 592.081 1275.75 556.944 1273.79 553.472L1269.71 553.748C1269.71 553.748 1291.59 592.454 1290.46 597.499Z" fill="black"/>
<path id="Vector_78" opacity="0.1" d="M1353.84 644.625C1329.16 645.193 1307.29 621.622 1307.29 621.622C1306.63 622.536 1306.16 623.565 1305.88 624.656C1312.36 630.69 1330.2 645.631 1349.91 645.177C1367.9 645.068 1385.87 646.005 1403.74 647.983C1403.74 647.983 1403.63 647.61 1403.45 646.977C1386.97 645.273 1370.41 644.487 1353.84 644.625Z" fill="black"/>
<path id="Vector_79" opacity="0.1" d="M1310.06 691.751C1310.06 691.751 1310.29 695.255 1310.16 700.511C1316 712.094 1326.62 731.901 1331.37 732.696L1330.54 728.089C1322.38 717.836 1310.06 691.751 1310.06 691.751Z" fill="black"/>
</g>
<path id="Vector_80" d="M1325.79 686.089L1313.87 688.604L1304.47 690.583L1309.51 676.551L1313.03 675.675L1318.49 674.312C1318.49 674.312 1326.34 635.038 1342.05 637.844C1357.76 640.651 1325.79 686.089 1325.79 686.089Z" fill="#714B4F"/>
<path id="Vector_81" opacity="0.1" d="M1313.89 688.652L1304.48 690.631L1309.53 676.599L1313.05 675.723C1313.82 679.986 1314.11 684.325 1313.89 688.652Z" fill="black"/>
<path id="Vector_82" d="M1220.89 596.38C1220.89 596.38 1234.34 641.802 1242.19 647.432C1250.04 653.061 1297.71 681.661 1311.73 674.928C1311.73 674.928 1315.1 691.767 1310.11 695.693C1310.11 695.693 1257.82 693.649 1257.4 693.454C1257.4 693.454 1223.19 688.961 1217.58 672.138C1211.97 655.316 1205.24 626.716 1205.24 626.716L1220.89 596.38Z" fill="#032E3F"/>
<path id="Vector_83" opacity="0.1" d="M1237.75 523.445C1237.75 523.445 1236.61 527.841 1235.09 534.233C1238.2 540.117 1243.15 544.816 1249.19 547.601C1255.23 550.387 1262.02 551.104 1268.51 549.644C1267.16 543.885 1267.45 538.061 1271.39 533.551L1237.75 523.445Z" fill="black"/>
<path id="Vector_84" d="M1261.31 549.254C1278.03 549.254 1291.59 535.687 1291.59 518.951C1291.59 502.215 1278.03 488.648 1261.31 488.648C1244.58 488.648 1231.02 502.215 1231.02 518.951C1231.02 535.687 1244.58 549.254 1261.31 549.254Z" fill="#714B4F"/>
<path id="Vector_85" opacity="0.1" d="M1287.61 510.613C1289.8 511.226 1292.1 511.37 1294.35 511.035C1296.68 510.403 1298.75 509.026 1300.23 507.115C1301.71 505.203 1302.53 502.86 1302.55 500.441C1302.51 498.023 1301.93 495.644 1300.85 493.48C1299.77 491.316 1298.22 489.421 1296.31 487.934C1293.75 485.793 1290.69 484.284 1288.34 481.899C1285.56 479.06 1284.04 475.264 1281.85 471.923C1278.25 466.397 1272.9 462.234 1266.66 460.097C1262.02 458.474 1256.33 458.345 1252.76 461.719C1250.93 463.455 1249.86 465.937 1247.82 467.413C1244.85 469.522 1240.83 468.905 1237.21 469.327C1233.94 469.825 1230.84 471.122 1228.18 473.102C1225.52 475.082 1223.39 477.685 1221.97 480.683C1219.21 486.795 1218.68 493.687 1220.48 500.149C1221.18 502.907 1222.22 505.568 1222.96 508.261C1224.58 513.971 1224.91 519.957 1226.72 525.586C1228.54 531.215 1232.29 536.731 1237.96 538.418C1237.51 532.1 1238.76 525.776 1241.58 520.103C1242.04 518.862 1242.96 517.842 1244.14 517.248C1245.15 516.988 1246.21 516.988 1247.22 517.248C1254.33 518.3 1261.59 516.831 1267.73 513.095C1269.88 511.797 1273.24 507.32 1275.53 506.882C1278.48 506.379 1284.53 509.931 1287.61 510.613Z" fill="black"/>
<path id="Vector_86" d="M1287.61 509.493C1289.8 510.107 1292.1 510.25 1294.35 509.915C1296.68 509.283 1298.75 507.907 1300.23 505.995C1301.71 504.083 1302.53 501.741 1302.55 499.322C1302.51 496.904 1301.93 494.525 1300.85 492.361C1299.77 490.197 1298.22 488.302 1296.31 486.815C1293.75 484.673 1290.69 483.165 1288.34 480.78C1285.56 477.941 1284.04 474.145 1281.85 470.803C1278.25 465.277 1272.9 461.115 1266.66 458.977C1262.02 457.355 1256.33 457.225 1252.76 460.599C1250.93 462.335 1249.86 464.817 1247.82 466.294C1244.85 468.402 1240.83 467.786 1237.21 468.208C1233.94 468.706 1230.84 470.002 1228.18 471.982C1225.52 473.963 1223.39 476.566 1221.97 479.563C1219.21 485.676 1218.68 492.567 1220.48 499.03C1221.18 501.788 1222.22 504.448 1222.96 507.141C1224.58 512.851 1224.91 518.837 1226.72 524.467C1228.54 530.096 1232.29 535.611 1237.96 537.298C1237.53 530.983 1238.79 524.665 1241.61 519C1242.07 517.759 1242.99 516.739 1244.17 516.145C1245.18 515.885 1246.24 515.885 1247.25 516.145C1254.36 517.197 1261.62 515.728 1267.76 511.992C1269.92 510.694 1273.27 506.217 1275.56 505.779C1278.48 505.259 1284.53 508.812 1287.61 509.493Z" fill="#503F43"/>
<path id="Vector_87" d="M1589.74 409.483L1565.03 686.398L1453.97 717.22L1343.22 686.398L1318.54 409.483H1589.74Z" fill="#E44D26"/>
<path id="Vector_88" d="M1454.13 693.665L1543.88 668.78L1564.95 432.129H1454.13V693.665Z" fill="#F16529"/>
<path id="Vector_89" d="M1406.11 500.068H1454.13V466.099H1369.01L1369.82 475.216L1378.17 568.818H1454.15V534.849H1409.22L1406.11 500.068ZM1413.83 585.803H1379.78L1384.53 639.142L1453.99 658.511H1454.15V623.066H1454L1416.19 612.846L1413.83 585.803Z" fill="#EBEBEB"/>
<path id="Vector_90" d="M1343.79 334.212H1361.04V351.261H1376.81V334.212H1394.06V385.863H1376.81V368.57H1361.04V385.863H1343.79V334.212ZM1416.75 351.342H1401.55V334.212H1449.19V351.342H1434V385.863H1416.76V351.342H1416.75ZM1456.76 334.212H1474.76L1485.83 352.364L1496.89 334.212H1514.89V385.863H1497.7V360.265L1485.83 378.628H1485.54L1473.66 360.265V385.863H1456.76V334.212ZM1523.46 334.212H1540.71V368.781H1565.03V385.847H1523.51V334.212H1523.46Z" fill="black"/>
<path id="Vector_91" d="M1454.02 568.818H1495.82L1491.88 612.878L1454.02 623.098V658.511L1523.62 639.207L1524.13 633.464L1532.1 544.031L1532.93 534.914H1454.02V568.883V568.818ZM1454.02 499.987V500.068H1536.03L1536.71 492.428L1538.33 475.199L1539.14 466.083H1454.02V499.971V499.987Z" fill="white"/>
<path id="Vector_92" d="M594.595 613.916C591.434 604.653 586.878 592.827 583.246 590.134C583.027 589.96 582.788 589.812 582.533 589.696H582.079V578.26L573.55 579.622C572.182 575.489 571.146 571.252 570.454 566.953C571.275 567.775 572.322 568.336 573.462 568.564C574.602 568.792 575.783 568.677 576.858 568.234C576.712 568.007 576.599 567.764 576.469 567.521L576.858 567.358C575.516 564.988 574.806 562.312 574.799 559.588C574.87 557.102 575.268 554.637 575.982 552.255C577.506 546.983 580.084 542.052 581.527 536.763C582.449 533.348 582.886 529.82 582.824 526.284C582.868 520.291 581.502 514.373 578.836 509.007C578.175 507.462 577.138 506.107 575.82 505.065C574.621 504.4 573.387 503.799 572.124 503.264C570.009 501.839 568.188 500.022 566.757 497.911C560.7 490.533 552.592 485.118 543.458 482.354C541.08 481.47 538.503 481.268 536.016 481.77C530.293 483.392 528.201 490.416 523.564 494.131C519.462 497.375 513.836 497.748 508.713 498.852C503.453 499.747 498.612 502.285 494.883 506.103C492.458 508.876 491.137 512.444 491.17 516.128C491.03 517.847 491.334 519.574 492.052 521.142C492.771 522.709 493.879 524.067 495.272 525.083C496.857 526.126 498.653 526.805 500.531 527.071C502.409 527.338 504.323 527.185 506.135 526.624C504.719 531.517 504.329 536.65 504.99 541.701C505.65 546.752 507.346 551.611 509.972 555.975C512.598 560.339 516.097 564.113 520.25 567.06C524.402 570.007 529.119 572.064 534.103 573.101L535.108 574.886C538.175 580.607 540.501 586.696 542.031 593.006C534.184 597.467 525.607 601.636 520.435 602.025C520.23 604.048 519.856 606.051 519.316 608.011C518.108 612.935 515.784 617.514 512.523 621.395C505.486 629.311 473.822 689.172 473.822 689.172C473.822 689.172 472.816 691.556 471.195 695.661C451.528 698.078 419.442 701.565 410.476 699.765L375.292 666.314C375.292 666.314 363.943 674.993 364.916 685.538L358.576 679.503C358.576 679.503 325.144 705.021 377.935 721.681L458.257 731.009C450.604 754.109 443.47 780.99 445.675 795.622H446.34C447.876 795.62 449.41 795.5 450.928 795.265L450.782 797.861L443.048 936.448C443.048 936.448 441.281 961.966 465.034 973.419C465.034 973.419 494.072 1058.8 482.625 1068.48C482.625 1068.48 483.987 1069.2 486.273 1070.2L462.391 1091.29C462.391 1091.29 444.799 1095.69 435.12 1094.81C433.419 1094.58 431.692 1094.98 430.269 1095.94C428.845 1096.9 427.825 1098.35 427.402 1100.02C427.402 1100.2 427.402 1100.37 427.305 1100.57V1100.8C427.305 1100.97 427.305 1101.17 427.305 1101.36C427.305 1101.56 427.305 1101.51 427.305 1101.57C427.305 1101.64 427.305 1101.9 427.305 1102.06V1102.27C427.305 1102.47 427.305 1102.65 427.419 1102.84V1103.05C427.473 1103.26 427.538 1103.46 427.613 1103.65V1103.85C427.694 1104.04 427.792 1104.24 427.889 1104.43V1104.56C428.002 1104.75 428.116 1104.95 428.246 1105.14L428.359 1105.31C428.5 1105.51 428.656 1105.72 428.829 1105.92L428.959 1106.08C429.137 1106.3 429.332 1106.49 429.543 1106.7H429.64L430.288 1107.25L430.434 1107.37L431.229 1107.93L431.423 1108.06L432.348 1108.6H432.493L433.483 1109.09H433.628L434.78 1109.56L435.023 1109.65L436.304 1110.08H436.514L437.893 1110.43H438.006L439.627 1110.74H439.935L441.557 1110.98H441.865L443.729 1111.16C447.345 1111.44 452.225 1111.54 457.868 1111.52C457.868 1111.52 457.868 1111.66 457.868 1111.73C457.868 1111.79 457.868 1112.05 457.868 1112.22V1112.43C457.868 1112.62 457.868 1112.8 457.981 1113V1113.21C458.035 1113.41 458.1 1113.61 458.176 1113.81V1114C458.257 1114.2 458.354 1114.39 458.451 1114.58V1114.71C458.565 1114.91 458.678 1115.1 458.808 1115.3L458.921 1115.46C459.062 1115.67 459.219 1115.87 459.392 1116.08L459.521 1116.24C459.7 1116.45 459.894 1116.65 460.105 1116.86H460.186L460.835 1117.41L460.98 1117.52L461.775 1118.09L461.97 1118.22L462.877 1118.75H463.023L464.012 1119.24H464.158L465.31 1119.71L465.553 1119.81L466.834 1120.23H467.044L468.422 1120.59H468.536L470.157 1120.9H470.465L472.087 1121.14H472.395L474.259 1121.32C497.136 1123.09 570.146 1117.8 570.146 1117.8V1117.59V1117.33C570.875 1113.92 574.377 1094.11 561.925 1079.46C562.298 1079.07 562.655 1078.67 562.995 1078.25C562.995 1078.25 553.267 1061.52 558.602 1056.25C563.936 1050.98 532.838 960.246 532.838 960.246C532.838 960.246 516.122 933.836 525.802 903.906C535.481 873.976 524.926 841.418 524.926 841.418C524.926 841.418 548.03 834.572 548.452 806.134C548.452 805.275 548.452 804.382 548.452 803.49C548.935 803.561 549.423 803.593 549.911 803.587C550.235 803.611 550.56 803.611 550.884 803.587C550.884 803.587 546.49 787.738 551.76 776.301C557.029 764.865 568.476 775.426 579.031 728.77C586.667 695.012 593.379 656.192 596.525 637.293C597.817 629.461 597.154 621.43 594.595 613.916ZM393.841 712.872L385.815 705.248C388.474 706.351 391.425 707.422 394.716 708.492L424.954 712.045C411.465 713.262 398.867 713.943 393.841 712.921V712.872Z" fill="url(#paint1_linear)"/>
<path id="Vector_93" d="M470.416 708.427C470.416 708.427 408.189 717.074 395.218 714.478L360.651 681.612C360.651 681.612 327.803 706.692 379.67 723.125L476.464 734.367L470.416 708.427Z" fill="#FDC2CC"/>
<path id="Vector_94" opacity="0.05" d="M470.416 708.427C470.416 708.427 408.189 717.074 395.218 714.478L360.651 681.612C360.651 681.612 327.803 706.692 379.67 723.125L476.464 734.367L470.416 708.427Z" fill="black"/>
<path id="Vector_95" d="M492.905 1059.51L462.651 1086.31C462.651 1086.31 445.367 1090.64 435.866 1089.76C426.365 1088.89 422.036 1104.46 444.508 1106.2C466.98 1107.93 538.708 1102.74 538.708 1102.74C538.708 1102.74 545.615 1075.07 524.878 1059.51H492.905Z" fill="#47465A"/>
<path id="Vector_96" opacity="0.05" d="M492.905 1059.51L462.651 1086.31C462.651 1086.31 445.367 1090.64 435.866 1089.76C426.365 1088.89 422.036 1104.46 444.508 1106.2C466.98 1107.93 538.708 1102.74 538.708 1102.74C538.708 1102.74 545.615 1075.07 524.878 1059.51H492.905Z" fill="black"/>
<path id="Vector_97" opacity="0.3" d="M539.778 1090.79C539.726 1093.94 539.362 1097.08 538.691 1100.16C538.691 1100.16 466.963 1105.35 444.491 1103.62C433.677 1102.79 429.089 1098.75 428.278 1094.89C427.289 1099.34 431.213 1105.19 444.491 1106.25C466.963 1107.98 538.691 1102.79 538.691 1102.79C539.536 1098.85 539.901 1094.82 539.778 1090.79Z" fill="white"/>
<path id="Vector_98" d="M528.315 569.289C528.315 569.289 547.333 596.088 540.41 614.257C533.487 632.426 576.712 595.228 576.712 595.228C576.712 595.228 562.882 570.911 569.805 544.955L528.315 569.289Z" fill="#FDC2CC"/>
<path id="Vector_99" d="M523.127 1069.89L492.905 1096.69C492.905 1096.69 475.621 1101.02 466.12 1100.15C456.619 1099.27 452.29 1114.84 474.762 1116.58C497.234 1118.32 568.962 1113.12 568.962 1113.12C568.962 1113.12 575.869 1085.45 555.132 1069.89H523.127Z" fill="#47465A"/>
<path id="Vector_100" d="M531.817 1063.84C527.31 1069.41 520.954 1071.55 514.306 1071.87C499.196 1072.59 482.561 1063.84 482.561 1063.84C493.796 1054.34 465.277 970.45 465.277 970.45C441.946 959.208 443.665 934.128 443.665 934.128L451.22 798.023L453.133 763.826L477.34 749.129L496.407 763.729L514.501 777.615C515.68 782.033 516.44 786.552 516.771 791.112C518.879 822.892 493.764 830.37 493.764 830.37C493.764 830.37 504.141 862.361 494.623 891.772C485.106 921.183 501.53 947.122 501.53 947.122C501.53 947.122 532.644 1037.06 527.472 1042.25C522.3 1047.44 531.817 1063.84 531.817 1063.84Z" fill="#565171"/>
<path id="Vector_101" opacity="0.05" d="M531.817 1063.84C527.31 1069.41 520.954 1071.55 514.306 1071.87C499.196 1072.59 482.561 1063.84 482.561 1063.84C493.796 1054.34 465.277 970.45 465.277 970.45C441.946 959.208 443.665 934.128 443.665 934.128L451.22 798.023L453.133 763.826L477.34 749.129L496.407 763.729L514.501 777.615C515.68 782.033 516.44 786.552 516.771 791.112C518.879 822.892 493.764 830.37 493.764 830.37C493.764 830.37 504.141 862.361 494.623 891.772C485.106 921.183 501.53 947.122 501.53 947.122C501.53 947.122 532.644 1037.06 527.472 1042.25C522.3 1047.44 531.817 1063.84 531.817 1063.84Z" fill="black"/>
<path id="Vector_102" d="M562.023 1074.21C547.333 1092.36 512.766 1074.21 512.766 1074.21C513.462 1073.57 513.981 1072.76 514.274 1071.86C520.613 1054.61 492.888 972.169 492.888 972.169C469.557 960.927 466.947 934.128 466.947 934.128L460.834 795.557L460.04 777.615L496.407 763.729L507.578 759.463L544.788 787.998C546.385 793.909 547.171 800.011 547.122 806.134C546.652 834.053 524.002 840.801 524.002 840.801C524.002 840.801 534.379 872.792 524.861 902.203C515.344 931.614 531.817 957.472 531.817 957.472C531.817 957.472 562.93 1047.41 557.758 1052.6C552.586 1057.79 562.023 1074.21 562.023 1074.21Z" fill="#565171"/>
<path id="Vector_103" opacity="0.1" d="M547.122 806.134C539.648 805.064 524.521 796.06 516.754 791.177C513.787 789.312 511.89 788.063 511.89 788.063C511.89 788.063 504.108 766.438 483.371 782.871C476.625 788.354 469.007 792.664 460.834 795.622C457.712 796.728 454.493 797.538 451.22 798.039L453.133 763.843L477.34 749.145L496.407 763.745L507.578 759.479L544.787 787.998C546.385 793.909 547.171 800.011 547.122 806.134Z" fill="black"/>
<path id="Vector_104" d="M593.898 640.196C590.818 658.755 584.17 696.974 576.712 730.052C566.335 775.88 555.099 765.497 549.927 776.739C544.755 787.981 549.068 803.539 549.068 803.539C540.426 804.398 511.907 785.386 511.907 785.386C511.907 785.386 504.124 763.762 483.387 780.195C462.65 796.628 446.226 795.752 446.226 795.752C441.897 767.217 473.886 691.118 473.886 691.118C473.886 691.118 505 632.312 511.907 624.607C515.112 620.798 517.397 616.302 518.587 611.467C519.117 609.543 519.486 607.579 519.689 605.594C530.925 604.734 558.601 585.706 558.601 585.706L580.214 582.25V593.492C580.47 593.607 580.709 593.754 580.927 593.93C584.478 596.64 589.034 608.19 592.066 617.291C594.548 624.659 595.178 632.526 593.898 640.196Z" fill="#227374"/>
<g id="C_Sharp_logo 1" clip-path="url(#clip1)">
<g id="Group_5">
<path id="Vector_105" d="M248.993 453.9H419.203V628.313H248.993V453.9Z" fill="url(#paint2_linear)"/>
<path id="Vector_106" d="M419.203 634.577L200.155 507.56H88.3066V717.832H419.203V634.577Z" fill="url(#paint3_linear)"/>
<path id="Vector_107" d="M88.3066 632.849L419.203 440.968V365.256H88.3066V632.849Z" fill="url(#paint4_linear)"/>
</g>
<path id="Vector_108" d="M155.599 537.77C155.032 443.33 281.259 401.629 335.693 489.38L293.924 513.601C268.709 471.808 206.102 486.752 203.855 537.769C204.53 584.788 266.064 606.629 293.927 561.934L335.696 586.154C287.724 669.609 158.018 639.583 155.599 537.77ZM314.803 510.347H322.758L317.323 562.959H309.218L314.803 510.347ZM331.843 510.347H339.798L334.362 562.959H326.258L331.843 510.347ZM305.894 522.841H345.668V530.54H305.894V522.841ZM303.666 541.595H343.441V549.294H303.666V541.595Z" fill="white"/>
</g>
<path id="Vector_109" d="M492.905 721.405L481.734 720.107L396.111 710.163C344.228 693.73 377.092 668.65 377.092 668.65L411.659 701.517C421.631 703.512 460.754 698.856 478.28 696.65C483.534 695.969 486.857 695.514 486.857 695.514L492.905 721.405Z" fill="#FDC2CC"/>
<path id="Vector_110" opacity="0.1" d="M576.712 604.67C576.712 604.67 554.24 586.517 520.467 645.306C486.695 704.096 478.977 694.59 478.977 694.59C478.977 694.59 485.884 720.545 482.431 725.72C482.431 725.72 505.762 723.985 514.403 725.72C523.045 727.456 576.631 660.004 576.631 660.004C576.631 660.004 604.372 621.963 576.712 604.67Z" fill="black"/>
<path id="Vector_111" opacity="0.1" d="M575.853 601.214C575.853 601.214 553.381 583.062 519.673 641.851C485.966 700.641 478.183 691.134 478.183 691.134C478.183 691.134 504.968 720.529 513.609 722.265C522.251 724.001 575.837 656.549 575.837 656.549C575.837 656.549 603.513 618.507 575.853 601.214Z" fill="black"/>
<path id="Vector_112" opacity="0.1" d="M481.717 720.156C482.074 713.748 479.658 702.49 478.264 696.65C483.517 695.969 486.841 695.514 486.841 695.514L492.888 721.47L481.717 720.156Z" fill="black"/>
<path id="Vector_113" d="M576.712 602.934C576.712 602.934 554.24 584.781 520.467 643.587C486.695 702.393 478.977 692.87 478.977 692.87C478.977 692.87 485.884 718.826 482.431 724.001C482.431 724.001 505.762 722.265 514.403 724.001C523.045 725.737 576.631 658.284 576.631 658.284C576.631 658.284 604.372 620.227 576.712 602.934Z" fill="#227374"/>
<path id="Vector_114" opacity="0.1" d="M570.729 546.724L529.174 570.911C530.932 573.463 532.556 576.105 534.038 578.827C536.429 579.313 538.862 579.558 541.301 579.557C552.375 579.557 557.515 567.926 564.211 560.091C563.725 553.861 568.816 553.699 570.729 546.724Z" fill="black"/>
<path id="Vector_115" d="M540.41 577.87C560.459 577.87 576.712 561.609 576.712 541.549C576.712 521.489 560.459 505.227 540.41 505.227C520.361 505.227 504.108 521.489 504.108 541.549C504.108 561.609 520.361 577.87 540.41 577.87Z" fill="#FDC2CC"/>
<path id="Vector_116" opacity="0.1" d="M494.526 512.17C498.187 508.414 502.944 505.915 508.113 505.032C513.155 503.945 518.684 503.621 522.705 500.393C527.261 496.743 529.304 489.8 534.93 488.242C537.374 487.753 539.906 487.955 542.242 488.826C551.217 491.54 559.185 496.859 565.136 504.108C566.544 506.187 568.338 507.977 570.421 509.38C571.662 509.905 572.874 510.495 574.053 511.148C575.344 512.175 576.358 513.507 577.004 515.025C581.055 523.212 581.988 532.594 579.63 541.419C578.22 546.626 575.691 551.46 574.183 556.652C572.675 561.843 572.302 567.715 575.042 572.355C572.383 573.718 569.027 571.998 567.357 569.516C565.687 567.034 565.184 563.984 564.309 561.113C562.587 555.476 559.344 550.424 554.937 546.513C552.214 544.112 547.35 542.49 545.453 545.588C544.723 546.788 544.772 548.33 544.139 549.579C542.907 552.028 539.275 552.515 536.957 551.201C534.673 549.624 533.069 547.243 532.466 544.534C528.915 532.48 522.835 524.905 509.961 530.047C505.097 531.961 499.504 533.292 494.883 530.047C488.965 525.699 490.148 517.085 494.526 512.17Z" fill="black"/>
<path id="Vector_117" d="M494.526 511.294C498.187 507.538 502.944 505.039 508.113 504.156C513.155 503.069 518.684 502.745 522.705 499.517C527.261 495.867 529.304 488.924 534.93 487.366C537.374 486.877 539.906 487.079 542.242 487.95C551.217 490.664 559.185 495.983 565.136 503.232C566.544 505.311 568.338 507.101 570.421 508.504C571.662 509.029 572.874 509.619 574.053 510.272C575.344 511.299 576.358 512.631 577.004 514.149C581.055 522.336 581.988 531.718 579.63 540.543C578.22 545.75 575.691 550.585 574.183 555.776C572.675 560.967 572.302 566.839 575.042 571.479C572.383 572.842 569.027 571.122 567.357 568.64C565.687 566.158 565.184 563.108 564.309 560.237C562.587 554.6 559.344 549.548 554.937 545.637C552.214 543.236 547.35 541.614 545.453 544.712C544.723 545.913 544.772 547.454 544.139 548.703C542.907 551.152 539.275 551.639 536.957 550.325C534.673 548.748 533.069 546.367 532.466 543.658C528.915 531.604 522.835 524.029 509.961 529.171C505.097 531.085 499.504 532.416 494.883 529.171C488.965 524.84 490.148 516.226 494.526 511.294Z" fill="#8F5A6A"/>
<path id="Vector_118" opacity="0.05" d="M580.878 593.866H563.319C563.319 593.866 528.752 611.159 527.893 610.299C527.309 609.715 521.959 610.721 518.57 611.418C519.101 609.495 519.47 607.53 519.673 605.546C530.909 604.686 558.585 585.657 558.585 585.657L580.197 582.202V593.444C580.441 593.556 580.67 593.697 580.878 593.866Z" fill="black"/>
<path id="Vector_119" opacity="0.3" d="M570.016 1101.15C569.965 1104.31 569.601 1107.45 568.93 1110.53C568.93 1110.53 497.201 1115.72 474.73 1113.98C463.915 1113.16 459.327 1109.12 458.516 1105.26C457.527 1109.7 461.451 1115.56 474.73 1116.61C497.201 1118.35 568.93 1113.16 568.93 1113.16C569.775 1109.21 570.139 1105.18 570.016 1101.15Z" fill="white"/>
<g id="Group_6" opacity="0.05">
<path id="Vector_120" opacity="0.05" d="M475.167 779.335C463.509 788.582 453.198 792.313 446.42 793.935C446.42 794.584 446.55 795.217 446.647 795.833C446.647 795.833 463.072 796.693 483.809 780.276C487.022 777.521 490.82 775.535 494.915 774.468C490.391 772.246 483.938 772.392 475.167 779.335Z" fill="black"/>
<path id="Vector_121" opacity="0.05" d="M592.455 617.209C589.358 608.109 584.867 596.575 581.316 593.849C581.099 593.673 580.859 593.526 580.603 593.411C580.603 593.411 573.453 593.655 573.696 593.849C577.247 596.558 580.717 607.249 583.813 616.333C586.323 623.718 586.969 631.609 585.694 639.304C582.614 657.862 575.966 696.082 568.508 729.159C558.131 774.987 546.895 764.605 541.723 775.847C537.475 785.061 539.599 797.163 540.523 801.235C543.318 802.635 546.382 803.415 549.506 803.522C549.506 803.522 545.177 787.965 550.365 776.723C555.553 765.481 566.789 775.863 577.15 730.036C584.656 696.877 591.255 658.657 594.336 640.18C595.611 632.485 594.964 624.594 592.455 617.209Z" fill="black"/>
</g>
<path id="Vector_122" d="M692.897 778.735C695.869 776.311 698.035 773.041 699.107 769.358C699.918 765.627 698.329 761.166 694.762 759.803C690.774 758.278 686.509 761.036 683.283 763.843C680.056 766.649 676.344 769.829 672.112 769.228C674.287 767.256 675.914 764.753 676.835 761.964C677.755 759.175 677.938 756.195 677.365 753.314C677.182 752.12 676.678 750.999 675.906 750.07C673.685 747.701 669.68 748.723 667.021 750.589C658.59 756.526 656.239 767.979 656.19 778.297C655.347 774.582 656.061 770.705 656.028 766.941C655.996 763.178 654.958 758.83 651.748 756.851C649.757 755.781 647.522 755.249 645.262 755.31C641.469 755.164 637.253 755.553 634.659 758.327C631.416 761.766 632.275 767.558 635.08 771.305C637.885 775.052 642.133 777.469 646.057 780.097C649.202 781.968 651.884 784.524 653.904 787.576C654.142 787.999 654.337 788.445 654.488 788.906H678.241C683.562 786.193 688.493 782.771 692.897 778.735Z" fill="#F27A5F"/>
<path id="Vector_123" d="M736.528 1083.34C740.305 1079.82 743.856 1075.67 744.959 1070.62C746.061 1065.58 743.905 1059.51 739.073 1057.64C733.674 1055.57 727.886 1059.27 723.508 1063.11C719.13 1066.96 714.104 1071.22 708.381 1070.41C711.329 1067.74 713.534 1064.34 714.781 1060.56C716.028 1056.78 716.276 1052.74 715.499 1048.84C715.247 1047.22 714.564 1045.71 713.521 1044.46C710.521 1041.21 705.073 1042.62 701.49 1045.15C690.141 1053.26 686.898 1068.72 686.817 1082.71C685.666 1077.66 686.639 1072.41 686.606 1067.23C686.574 1062.06 685.163 1056.33 680.802 1053.54C678.086 1052.08 675.032 1051.36 671.949 1051.46C666.81 1051.27 661.086 1051.79 657.584 1055.55C653.223 1060.22 654.342 1068.06 658.152 1073.2C661.962 1078.34 667.718 1081.57 673.019 1085.13C677.276 1087.66 680.906 1091.13 683.639 1095.26C683.963 1095.84 684.23 1096.45 684.434 1097.08H716.65C723.864 1093.42 730.551 1088.8 736.528 1083.34Z" fill="#F27A5F"/>
<path id="Vector_124" d="M883.474 1120.96L778.856 1091.8L755.546 828.959H1011.72L988.383 1091.76L883.474 1120.96Z" fill="#264DE4"/>
<path id="Vector_125" d="M968.945 1074.67L989.02 850.048H883.632V1098.25L968.945 1074.67Z" fill="#2965F1"/>
<path id="Vector_126" d="M808.447 947.435L811.344 979.515H883.632V947.435H808.447ZM802.628 882.493L805.563 914.573H883.62V882.493H802.565H802.628ZM883.62 1030.76H883.48L847.501 1021.11L845.201 995.517H812.716L817.239 1045.9L883.404 1064.18H883.556L883.62 1030.76Z" fill="#EBEBEB"/>
<path id="Vector_127" d="M815.536 757.581H854.6V774.105H831.864V790.628H854.6V807.152H815.536V757.581ZM862.479 757.581H901.543V771.949H878.756V774.823H901.492V807.87H862.415V792.783H885.151V789.91H862.415V757.581H862.479ZM909.422 757.581H948.486V771.949H925.636V774.823H948.372V807.87H909.295V792.783H932.03V789.91H909.295V757.581H909.422Z" fill="black"/>
<path id="Vector_128" d="M958.861 947.439L964.699 882.493H883.632V914.575H929.21L926.271 947.389H883.632V979.471H923.46L919.644 1021.12L883.632 1030.8V1064.18L949.931 1045.95L950.414 1040.52L958.047 956.034L958.835 947.414L958.861 947.439Z" fill="white"/>
</g>
<defs>
<linearGradient id="paint0_linear" x1="1303.79" y1="1000.56" x2="1303.79" y2="451.353" gradientUnits="userSpaceOnUse">
<stop stop-color="#808080" stop-opacity="0.25"/>
<stop offset="0.54" stop-color="#808080" stop-opacity="0.12"/>
<stop offset="1" stop-color="#808080" stop-opacity="0.1"/>
</linearGradient>
<linearGradient id="paint1_linear" x1="94115.7" y1="497939" x2="94115.7" y2="244934" gradientUnits="userSpaceOnUse">
<stop stop-color="#808080" stop-opacity="0.25"/>
<stop offset="0.54" stop-color="#808080" stop-opacity="0.12"/>
<stop offset="1" stop-color="#808080" stop-opacity="0.1"/>
</linearGradient>
<linearGradient id="paint2_linear" x1="307.278" y1="506.706" x2="389.77" y2="612.069" gradientUnits="userSpaceOnUse">
<stop stop-color="#3B009B"/>
<stop offset="1" stop-color="#390086"/>
</linearGradient>
<linearGradient id="paint3_linear" x1="180.709" y1="582.514" x2="268.41" y2="694.53" gradientUnits="userSpaceOnUse">
<stop stop-color="#340084"/>
<stop offset="1" stop-color="#290064"/>
</linearGradient>
<linearGradient id="paint4_linear" x1="184.404" y1="410.101" x2="274.164" y2="524.747" gradientUnits="userSpaceOnUse">
<stop stop-color="#A47EDE"/>
<stop offset="1" stop-color="#9866D3"/>
</linearGradient>
<clipPath id="clip0">
<rect width="1670" height="1184" fill="white"/>
</clipPath>
<clipPath id="clip1">
<rect width="322.647" height="352.024" fill="white" transform="translate(90.7954 361.757)"/>
</clipPath>
</defs>
</svg>
