<svg width="243" height="242" viewBox="0 0 243 242" fill="none" xmlns="http://www.w3.org/2000/svg">
<path d="M122.213 241.515C188.702 241.515 242.603 187.631 242.603 121.161C242.603 54.6912 188.702 0.806763 122.213 0.806763C55.7236 0.806763 1.82324 54.6912 1.82324 121.161C1.82324 187.631 55.7236 241.515 122.213 241.515Z" fill="#3F3D56"/>
<path d="M190.682 84.7994L154.635 121.462C154.572 121.523 154.521 121.596 154.487 121.676C154.452 121.757 154.434 121.844 154.434 121.932C154.434 122.019 154.452 122.106 154.487 122.187C154.521 122.267 154.572 122.34 154.635 122.401L179.927 149.287C180.532 149.896 180.944 150.671 181.11 151.513C181.276 152.356 181.19 153.228 180.862 154.022C180.534 154.816 179.979 155.495 179.266 155.974C178.553 156.453 177.715 156.711 176.856 156.716C175.7 156.713 174.592 156.255 173.773 155.439L148.613 128.65C148.485 128.523 148.312 128.453 148.131 128.453C147.951 128.453 147.778 128.523 147.65 128.65L141.519 134.839C139.009 137.405 136.012 139.443 132.702 140.835C129.393 142.226 125.839 142.943 122.249 142.942C118.591 142.925 114.973 142.179 111.607 140.749C108.24 139.318 105.193 137.231 102.642 134.61L96.7525 128.59C96.6241 128.463 96.451 128.392 96.2707 128.392C96.0905 128.392 95.9175 128.463 95.789 128.59L70.6897 155.319C70.2859 155.723 69.8062 156.044 69.2782 156.263C68.7502 156.482 68.1842 156.595 67.6125 156.595C67.0409 156.595 66.4749 156.482 65.9469 156.263C65.4189 156.044 64.9392 155.723 64.5354 155.319C64.1293 154.916 63.8071 154.437 63.5872 153.909C63.3673 153.381 63.2541 152.815 63.2541 152.243C63.2541 151.671 63.3673 151.105 63.5872 150.577C63.8071 150.049 64.1293 149.569 64.5354 149.166L89.731 122.341C89.8429 122.21 89.9044 122.043 89.9044 121.871C89.9044 121.699 89.8429 121.533 89.731 121.402L53.6839 84.7392C53.5912 84.6461 53.473 84.5826 53.3441 84.5568C53.2153 84.5311 53.0817 84.5441 52.9603 84.5945C52.839 84.6448 52.7353 84.7301 52.6625 84.8395C52.5898 84.9488 52.5512 85.0775 52.5518 85.2088V158.57C52.5613 161.406 53.6924 164.123 55.6983 166.128C57.7041 168.133 60.422 169.264 63.2587 169.274H181.131C183.968 169.264 186.686 168.133 188.692 166.128C190.698 164.123 191.829 161.406 191.838 158.57V85.269C191.844 85.1325 191.808 84.9974 191.734 84.8824C191.66 84.7674 191.553 84.678 191.426 84.6266C191.299 84.5751 191.16 84.5642 191.027 84.5951C190.893 84.6261 190.773 84.6974 190.682 84.7994Z" fill="#D9CDB7"/>
<path d="M122.213 134.237C124.657 134.261 127.08 133.793 129.339 132.862C131.599 131.932 133.648 130.556 135.365 128.818L187.864 75.396C186 73.8527 183.66 73.0018 181.24 72.9879H63.2828C60.8618 72.9958 58.5193 73.8474 56.6587 75.396L109.17 128.818C110.872 130.547 112.903 131.916 115.143 132.847C117.383 133.778 119.787 134.25 122.213 134.237Z" fill="#D9CDB7"/>
<path opacity="0.1" d="M120.695 0.818863C96.87 0.806956 73.5762 7.85984 53.761 21.0852C33.9459 34.3106 18.4998 53.1143 9.37663 75.1174C0.253506 97.1205 -2.13664 121.334 2.50857 144.696C7.15377 168.057 18.6256 189.516 35.4728 206.358C52.3199 223.201 73.7855 234.669 97.1538 239.313C120.522 243.957 144.743 241.567 166.753 232.447C188.762 223.326 207.572 207.885 220.801 188.075C234.03 168.266 241.085 144.979 241.073 121.161C241.057 89.2491 228.37 58.6489 205.798 36.0839C183.226 13.5188 152.617 0.834815 120.695 0.818863ZM120.695 225.514C100.05 225.514 79.8688 219.393 62.703 207.927C45.5372 196.461 32.1582 180.163 24.2576 161.095C16.3571 142.027 14.29 121.045 18.3176 100.803C22.3453 80.5603 32.2868 61.9664 46.8851 47.3724C61.4834 32.7785 80.0828 22.8399 100.331 18.8134C120.58 14.7869 141.568 16.8534 160.641 24.7516C179.715 32.6498 196.017 46.025 207.487 63.1857C218.957 80.3464 225.079 100.522 225.079 121.161C225.079 148.837 214.081 175.379 194.506 194.949C174.93 214.519 148.38 225.514 120.695 225.514Z" fill="black"/>
</svg>
