<svg width="78" height="80" viewBox="0 0 78 80" fill="none" xmlns="http://www.w3.org/2000/svg">
<g id="github">
<path id="Vector" d="M26.0891 62.0938C26.0891 62.4062 25.7274 62.6562 25.2714 62.6562C24.7524 62.7031 24.3907 62.4531 24.3907 62.0938C24.3907 61.7812 24.7524 61.5312 25.2085 61.5312C25.6802 61.4844 26.0891 61.7344 26.0891 62.0938ZM21.1984 61.3906C21.0883 61.7031 21.4028 62.0625 21.8746 62.1562C22.2835 62.3125 22.7552 62.1562 22.8496 61.8438C22.944 61.5312 22.6452 61.1719 22.1734 61.0312C21.7645 60.9219 21.3085 61.0781 21.1984 61.3906ZM28.1492 61.125C27.6931 61.2344 27.3786 61.5312 27.4258 61.8906C27.473 62.2031 27.8819 62.4062 28.3536 62.2969C28.8097 62.1875 29.1242 61.8906 29.077 61.5781C29.0298 61.2812 28.6052 61.0781 28.1492 61.125ZM38.4968 1.25C16.6851 1.25 0 17.7031 0 39.375C0 56.7031 10.9766 71.5312 26.6552 76.75C28.6681 77.1094 29.3758 75.875 29.3758 74.8594C29.3758 73.8906 29.3286 68.5469 29.3286 65.2656C29.3286 65.2656 18.3206 67.6094 16.0089 60.6094C16.0089 60.6094 14.2161 56.0625 11.6371 54.8906C11.6371 54.8906 8.03589 52.4375 11.8887 52.4844C11.8887 52.4844 15.8044 52.7969 17.9589 56.5156C21.4028 62.5469 27.1742 60.8125 29.423 59.7812C29.7847 57.2812 30.8069 55.5469 31.9391 54.5156C23.1484 53.5469 14.279 52.2812 14.279 37.25C14.279 32.9531 15.4742 30.7969 17.9903 28.0469C17.5815 27.0312 16.2448 22.8438 18.3992 17.4375C21.6859 16.4219 29.25 21.6562 29.25 21.6562C32.3952 20.7813 35.7762 20.3281 39.1258 20.3281C42.4754 20.3281 45.8565 20.7813 49.0016 21.6562C49.0016 21.6562 56.5657 16.4062 59.8524 17.4375C62.0069 22.8594 60.6702 27.0312 60.2613 28.0469C62.7774 30.8125 64.3186 32.9688 64.3186 37.25C64.3186 52.3281 55.056 53.5312 46.2653 54.5156C47.7121 55.75 48.9387 58.0938 48.9387 61.7656C48.9387 67.0312 48.8915 73.5469 48.8915 74.8281C48.8915 75.8438 49.6149 77.0781 51.6121 76.7188C67.3379 71.5312 78 56.7031 78 39.375C78 17.7031 60.3085 1.25 38.4968 1.25ZM15.2855 55.1406C15.081 55.2969 15.1282 55.6562 15.3956 55.9531C15.6472 56.2031 16.0089 56.3125 16.2133 56.1094C16.4177 55.9531 16.3706 55.5938 16.1032 55.2969C15.8516 55.0469 15.4899 54.9375 15.2855 55.1406ZM13.5871 53.875C13.477 54.0781 13.6343 54.3281 13.9488 54.4844C14.2004 54.6406 14.5149 54.5938 14.625 54.375C14.7351 54.1719 14.5778 53.9219 14.2633 53.7656C13.9488 53.6719 13.6972 53.7188 13.5871 53.875ZM18.6823 59.4375C18.4306 59.6406 18.525 60.1094 18.8867 60.4062C19.2484 60.7656 19.7044 60.8125 19.9089 60.5625C20.1133 60.3594 20.019 59.8906 19.7044 59.5938C19.3585 59.2344 18.8867 59.1875 18.6823 59.4375ZM16.8895 57.1406C16.6379 57.2969 16.6379 57.7031 16.8895 58.0625C17.1411 58.4219 17.5657 58.5781 17.7702 58.4219C18.0218 58.2188 18.0218 57.8125 17.7702 57.4531C17.55 57.0938 17.1411 56.9375 16.8895 57.1406Z" fill="#227374"/>
</g>
</svg>
