<svg width="970" height="416" viewBox="0 0 970 416" fill="none" xmlns="http://www.w3.org/2000/svg">
<g id="img landingpage">
<g id="boy">
<path id="Vector" d="M212.909 232.077C212.918 230.8 212.663 229.535 212.162 228.361C211.661 227.187 210.923 226.129 209.995 225.253C209.067 224.377 207.969 223.702 206.769 223.27C205.569 222.839 204.293 222.659 203.02 222.743C201.748 222.828 200.506 223.173 199.373 223.76C198.24 224.346 197.24 225.159 196.435 226.15C195.63 227.14 195.038 228.286 194.695 229.516C194.353 230.746 194.267 232.033 194.443 233.298L167.789 268.247C166.651 270.524 166.21 273.087 166.521 275.614C166.832 278.142 167.88 280.521 169.535 282.454L171.626 284.896L181.22 282.975L192.093 273.37L190.814 262.483L204.245 241.35L204.228 241.335C206.579 241.185 208.785 240.145 210.397 238.425C212.01 236.705 212.908 234.435 212.909 232.077Z" fill="#FFB9B9"/>
<path id="Vector_2" d="M28.5828 402.936L24.2318 386.757L84.4898 362.256L90.9112 386.134L28.5828 402.936Z" fill="#FFB8B8"/>
<path id="Vector_3" d="M14.0284 411.285L0 359.116L0.659022 358.939C6.03761 357.489 11.7711 358.238 16.5983 361.02C21.4256 363.803 24.9513 368.391 26.3999 373.776L26.4002 373.778L34.9682 405.64L14.0284 411.285Z" fill="#2F2E41"/>
<path id="Vector_4" d="M111.585 400.351L98.0519 390.497L129.575 333.539L149.55 348.083L111.585 400.351Z" fill="#FFB8B8"/>
<path id="Vector_5" d="M105.497 416L61.8572 384.224L62.2586 383.672C65.5348 379.161 70.4661 376.139 75.968 375.269C81.4699 374.399 87.0916 375.752 91.5967 379.032L91.5978 379.033L118.251 398.44L105.497 416Z" fill="#2F2E41"/>
<path id="Vector_6" d="M226.631 320.758L192.573 287.632C189.601 284.741 185.686 283.022 181.549 282.79C177.411 282.559 173.329 283.831 170.054 286.373L105.748 357.9L111.505 366.865L172.905 325.24L214.479 379.673L254.133 359.822L226.631 320.758Z" fill="#2F2E41"/>
<path id="Vector_7" d="M211.92 327.802L186.976 325.881L168.912 321.496C167.891 319.902 166.409 318.659 164.663 317.932C162.918 317.205 160.992 317.029 159.143 317.428C157.295 317.827 155.613 318.782 154.321 320.165C153.03 321.548 152.192 323.293 151.918 325.166C151.645 327.039 151.949 328.951 152.791 330.647C153.633 332.342 154.972 333.739 156.629 334.651C158.286 335.563 160.181 335.947 162.062 335.75C163.942 335.554 165.718 334.787 167.152 333.553L167.149 333.566L178.022 338.048L224.712 354.058L230.468 349.575L211.92 327.802Z" fill="#FFB9B9"/>
<path id="Vector_8" d="M272.042 396.964L257.971 405.929H241.341L163.951 377.112L50.7434 397.604L47.5455 373.269L151.16 327.802L241.981 357.9L272.042 396.964Z" fill="#2F2E41"/>
<path id="Vector_9" d="M241.981 241.35C255.757 241.35 266.925 230.169 266.925 216.375C266.925 202.582 255.757 191.401 241.981 191.401C228.205 191.401 217.037 202.582 217.037 216.375C217.037 230.169 228.205 241.35 241.981 241.35Z" fill="#FFB9B9"/>
<path id="Vector_10" d="M306.522 316.09C306.522 331.162 304.15 346.141 299.493 360.475L297.626 366.225L288.671 407.21L279.078 409.771L272.042 400.806L257.971 390.56L247.738 373.91L238.962 359.271L236.225 354.698L226.631 306.67L190.174 286.177L178.022 284.256L180.58 277.212L191.454 262.483L202.327 261.202L205.524 258.641L208.083 259.922L222.186 265.361L267.91 246.019L274.6 247.114L297.626 266.325C303.512 282.255 306.524 299.105 306.522 316.09Z" fill="#CCCCCC"/>
<path id="Vector_11" opacity="0.1" d="M299.544 310.512L275.24 326.521L238.962 359.27L236.225 354.698L228.55 316.275H230.469L250.296 279.774L299.544 310.512Z" fill="black"/>
<path id="Vector_12" d="M250.296 275.931L230.469 312.433L218.956 325.241L208.723 327.802L236.225 357.9L275.24 322.679L299.544 306.669L250.296 275.931Z" fill="#CCCCCC"/>
<path id="Vector_13" d="M222.58 197.805L219.877 198.847C219.467 198.568 219.115 198.212 218.843 197.798C218.57 197.384 218.381 196.92 218.288 196.433C218.194 195.946 218.197 195.445 218.297 194.959C218.396 194.473 218.59 194.011 218.868 193.601C218.883 193.579 218.898 193.558 218.913 193.537L213.918 193.303C217.124 189.027 221.2 185.482 225.877 182.902C230.554 180.322 235.725 178.766 241.047 178.337C246.369 177.907 251.722 178.614 256.751 180.411C261.78 182.207 266.371 185.053 270.219 188.759C270.447 187.975 272.926 189.5 273.938 191.047C274.278 189.771 276.602 195.939 277.424 200.299C277.804 198.847 279.268 201.191 277.986 203.44C278.798 203.321 279.165 205.402 278.536 206.561C279.425 206.143 279.275 208.627 278.311 210.287C279.579 210.174 278.203 236.323 259.174 234.418C257.849 228.324 258.223 228.702 256.663 220.866C255.936 220.094 255.141 219.391 254.348 218.69L250.054 214.895C245.061 210.482 240.52 205.036 233.869 203.387C229.298 202.254 226.408 201.998 228.899 196.841C226.648 197.782 224.547 199.18 222.276 200.053C222.307 199.333 222.624 198.526 222.58 197.805Z" fill="#2F2E41"/>
<path id="Vector_14" d="M254.453 223.74C256.926 223.74 258.93 221.733 258.93 219.257C258.93 216.781 256.926 214.774 254.453 214.774C251.981 214.774 249.976 216.781 249.976 219.257C249.976 221.733 251.981 223.74 254.453 223.74Z" fill="#FFB9B9"/>
</g>
<g id="notebook">
<path id="Vector_15" d="M916.521 0H308.173C305.974 -2.50204e-06 303.797 0.433636 301.765 1.27616C299.734 2.11868 297.888 3.35357 296.333 4.91035C294.778 6.46713 293.545 8.31529 292.703 10.3493C291.862 12.3833 291.429 14.5634 291.429 16.765V356.145C291.429 358.347 291.862 360.527 292.703 362.561C293.545 364.595 294.778 366.443 296.333 368C297.888 369.557 299.734 370.792 301.765 371.634C303.797 372.477 305.974 372.91 308.173 372.91H916.521C920.962 372.91 925.221 371.144 928.361 368C931.501 364.856 933.266 360.591 933.266 356.145V16.765C933.266 12.3187 931.501 8.05441 928.361 4.91036C925.221 1.76631 920.962 2.52656e-06 916.521 0Z" fill="#3F3D56"/>
<path id="Vector_16" d="M910.816 29.6285H313.878V366.78H910.816V29.6285Z" fill="white"/>
<path id="Vector_17" d="M611.837 20.4334C615.218 20.4334 617.959 17.6889 617.959 14.3034C617.959 10.9178 615.218 8.17334 611.837 8.17334C608.456 8.17334 605.714 10.9178 605.714 14.3034C605.714 17.6889 608.456 20.4334 611.837 20.4334Z" fill="white"/>
<path id="Vector_18" d="M740.102 366.781H313.878V29.629L740.102 366.781Z" fill="#F2F2F2"/>
<path id="Vector_19" d="M772.627 204.789H716.866V216.454H772.627V204.789Z" fill="#3F3D56"/>
<path id="Vector_20" d="M825.382 141.588H664.111V146.587H825.382V141.588Z" fill="#3F3D56"/>
<path id="Vector_21" d="M825.382 161.231H664.111V166.23H825.382V161.231Z" fill="#3F3D56"/>
<path id="Vector_22" d="M825.382 180.874H664.111V185.873H825.382V180.874Z" fill="#3F3D56"/>
<path id="Vector_23" d="M950.026 360.65H891.769V356.448C891.769 356.338 891.747 356.23 891.705 356.129C891.664 356.028 891.602 355.936 891.525 355.858C891.448 355.781 891.356 355.72 891.255 355.678C891.154 355.636 891.046 355.614 890.936 355.614H870.962C870.853 355.614 870.745 355.636 870.644 355.678C870.543 355.72 870.451 355.781 870.374 355.858C870.297 355.936 870.235 356.028 870.193 356.129C870.152 356.23 870.13 356.338 870.13 356.447V360.65H857.647V356.448C857.647 356.338 857.625 356.23 857.583 356.129C857.541 356.028 857.48 355.936 857.403 355.858C857.326 355.781 857.234 355.72 857.133 355.678C857.032 355.636 856.924 355.614 856.814 355.614H836.84C836.731 355.614 836.623 355.636 836.522 355.678C836.421 355.72 836.329 355.781 836.252 355.858C836.175 355.936 836.113 356.028 836.071 356.129C836.03 356.23 836.008 356.338 836.008 356.448V360.65H823.524V356.448C823.524 356.338 823.503 356.23 823.461 356.129C823.419 356.028 823.358 355.936 823.281 355.858C823.203 355.781 823.112 355.72 823.011 355.678C822.91 355.636 822.802 355.614 822.692 355.614H802.718C802.609 355.614 802.501 355.636 802.4 355.678C802.299 355.72 802.207 355.781 802.13 355.858C802.052 355.936 801.991 356.028 801.949 356.129C801.907 356.23 801.886 356.338 801.886 356.448V360.65H789.402V356.448C789.402 356.338 789.381 356.23 789.339 356.129C789.297 356.028 789.236 355.936 789.159 355.858C789.081 355.781 788.99 355.72 788.889 355.678C788.788 355.636 788.679 355.614 788.57 355.614H768.596C768.487 355.614 768.379 355.636 768.278 355.678C768.177 355.72 768.085 355.781 768.008 355.858C767.93 355.936 767.869 356.028 767.827 356.129C767.785 356.23 767.764 356.338 767.764 356.447V360.65H755.28V356.448C755.28 356.338 755.259 356.23 755.217 356.129C755.175 356.028 755.114 355.936 755.036 355.858C754.959 355.781 754.867 355.72 754.766 355.678C754.665 355.636 754.557 355.614 754.448 355.614H734.474C734.365 355.614 734.256 355.636 734.155 355.678C734.054 355.72 733.963 355.781 733.885 355.858C733.808 355.936 733.747 356.028 733.705 356.129C733.663 356.23 733.642 356.338 733.642 356.448V360.65H721.158V356.448C721.158 356.338 721.136 356.23 721.095 356.129C721.053 356.028 720.991 355.936 720.914 355.858C720.837 355.781 720.745 355.72 720.644 355.678C720.543 355.636 720.435 355.614 720.326 355.614H700.352C700.242 355.614 700.134 355.636 700.033 355.678C699.932 355.72 699.841 355.781 699.763 355.858C699.686 355.936 699.625 356.028 699.583 356.129C699.541 356.23 699.52 356.338 699.52 356.448V360.65H687.036V356.448C687.036 356.338 687.014 356.23 686.973 356.129C686.931 356.028 686.869 355.936 686.792 355.858C686.715 355.781 686.623 355.72 686.522 355.678C686.421 355.636 686.313 355.614 686.204 355.614H529.741C529.632 355.614 529.523 355.636 529.423 355.678C529.322 355.72 529.23 355.781 529.153 355.858C529.075 355.936 529.014 356.028 528.972 356.129C528.93 356.23 528.909 356.338 528.909 356.448V360.65H516.425V356.448C516.425 356.338 516.404 356.23 516.362 356.129C516.32 356.028 516.259 355.936 516.181 355.858C516.104 355.781 516.012 355.72 515.911 355.678C515.81 355.636 515.702 355.614 515.593 355.614H495.619C495.51 355.614 495.401 355.636 495.3 355.678C495.199 355.72 495.108 355.781 495.03 355.858C494.953 355.936 494.892 356.028 494.85 356.129C494.808 356.23 494.787 356.338 494.787 356.448V360.65H482.303V356.448C482.303 356.338 482.281 356.23 482.24 356.129C482.198 356.028 482.136 355.936 482.059 355.858C481.982 355.781 481.89 355.72 481.789 355.678C481.688 355.636 481.58 355.614 481.471 355.614H461.497C461.387 355.614 461.279 355.636 461.178 355.678C461.077 355.72 460.985 355.781 460.908 355.858C460.831 355.936 460.77 356.028 460.728 356.129C460.686 356.23 460.664 356.338 460.664 356.448V360.65H448.181V356.448C448.181 356.338 448.159 356.23 448.117 356.129C448.076 356.028 448.014 355.936 447.937 355.858C447.86 355.781 447.768 355.72 447.667 355.678C447.566 355.636 447.458 355.614 447.348 355.614H427.375C427.265 355.614 427.157 355.636 427.056 355.678C426.955 355.72 426.863 355.781 426.786 355.858C426.709 355.936 426.647 356.028 426.606 356.129C426.564 356.23 426.542 356.338 426.542 356.448V360.65H414.059V356.448C414.059 356.338 414.037 356.23 413.995 356.129C413.953 356.028 413.892 355.936 413.815 355.858C413.738 355.781 413.646 355.72 413.545 355.678C413.444 355.636 413.336 355.614 413.226 355.614H393.252C393.143 355.614 393.035 355.636 392.934 355.678C392.833 355.72 392.741 355.781 392.664 355.858C392.587 355.936 392.525 356.028 392.483 356.129C392.442 356.23 392.42 356.338 392.42 356.448V360.65H379.936V356.448C379.936 356.338 379.915 356.23 379.873 356.129C379.831 356.028 379.77 355.936 379.693 355.858C379.615 355.781 379.524 355.72 379.423 355.678C379.322 355.636 379.213 355.614 379.104 355.614H359.13C358.909 355.614 358.698 355.702 358.542 355.858C358.386 356.015 358.298 356.226 358.298 356.447V360.65H345.814V356.448C345.814 356.338 345.793 356.23 345.751 356.129C345.709 356.028 345.648 355.936 345.57 355.858C345.493 355.781 345.401 355.72 345.301 355.678C345.2 355.636 345.091 355.614 344.982 355.614H325.008C324.787 355.614 324.576 355.702 324.42 355.858C324.264 356.015 324.176 356.227 324.176 356.448V360.65H285.892C280.595 360.65 275.515 362.757 271.769 366.508C268.023 370.258 265.918 375.345 265.918 380.649V389.692C265.918 394.996 268.023 400.082 271.769 403.833C275.515 407.583 280.595 409.69 285.892 409.69H950.026C955.323 409.69 960.404 407.583 964.15 403.833C967.896 400.082 970 394.996 970 389.692V380.649C970 378.023 969.483 375.422 968.48 372.996C967.476 370.569 966.005 368.365 964.15 366.508C962.295 364.651 960.093 363.178 957.67 362.172C955.246 361.167 952.649 360.65 950.026 360.65Z" fill="#3F3D56"/>
</g>
<g id="quadradoUm">
<path id="Vector_24" d="M45.6679 113.386L44.3016 133.927L64.8174 135.295L66.1837 114.754L45.6679 113.386Z" fill="#D9CDB7"/>
<path id="Vector_25" d="M32.4311 124.293L57.3431 125.954L55.684 150.897L30.7721 149.236L32.4311 124.293ZM56.1878 126.966L33.4421 125.45L31.9274 148.223L54.673 149.74L56.1878 126.966Z" fill="#CCCCCC"/>
</g>
<g id="quadradoDois">
<path id="Vector_26" d="M161.606 52.4749L141.503 56.7997L145.823 76.9269L165.925 72.6022L161.606 52.4749Z" fill="#D9CDB7"/>
<path id="Vector_27" d="M147.496 42.7261L152.741 67.1663L128.331 72.4177L123.086 47.9775L147.496 42.7261ZM151.452 66.332L146.663 44.017L124.375 48.8118L129.164 71.1268L151.452 66.332Z" fill="#CCCCCC"/>
</g>
<g id="quadradoTr&#195;&#170;s">
<path id="Vector_28" d="M140.483 149.133L125.477 163.207L139.533 178.231L154.539 164.158L140.483 149.133Z" fill="#D93B3A"/>
<path id="Vector_29" d="M155.618 147.028L137.396 164.117L120.328 145.872L138.55 128.783L155.618 147.028ZM137.446 162.581L154.083 146.978L138.5 130.32L121.862 145.923L137.446 162.581Z" fill="#CCCCCC"/>
</g>
<path id="Vector_30" d="M407.281 341.551C438.971 341.551 464.66 315.829 464.66 284.1C464.66 252.371 438.971 226.65 407.281 226.65C375.591 226.65 349.901 252.371 349.901 284.1C349.901 315.829 375.591 341.551 407.281 341.551Z" fill="#D9CDB7"/>
<path id="Vector_31" d="M420.054 327.28C405.938 327.28 392.138 323.089 380.4 315.236C368.663 307.384 359.515 296.223 354.113 283.165C348.71 270.107 347.297 255.738 350.051 241.875C352.805 228.013 359.603 215.279 369.585 205.285C379.567 195.291 392.284 188.485 406.13 185.727C419.975 182.97 434.326 184.385 447.368 189.794C460.41 195.203 471.557 204.362 479.4 216.114C487.243 227.866 491.429 241.683 491.429 255.817C491.429 265.202 489.583 274.494 485.996 283.165C482.409 291.835 477.151 299.713 470.524 306.349C463.896 312.985 456.028 318.249 447.368 321.84C438.708 325.432 429.427 327.28 420.054 327.28ZM420.054 185.288C406.122 185.288 392.503 189.425 380.919 197.174C369.335 204.924 360.306 215.939 354.974 228.827C349.643 241.714 348.248 255.895 350.966 269.576C353.684 283.258 360.393 295.825 370.244 305.688C380.096 315.552 392.647 322.269 406.311 324.991C419.976 327.712 434.139 326.315 447.011 320.977C459.882 315.639 470.884 306.599 478.624 295.001C486.364 283.402 490.496 269.766 490.496 255.817C490.496 246.555 488.674 237.384 485.134 228.827C481.594 220.27 476.405 212.495 469.864 205.946C463.323 199.396 455.557 194.201 447.011 190.657C438.464 187.112 429.305 185.288 420.054 185.288L420.054 185.288Z" fill="#3F3D56"/>
<g id="quadradoQuatro">
<path id="Vector_32" d="M868.583 49.8055H845.28V73.1373H868.583V49.8055Z" fill="#D93B3A"/>
<path id="Vector_33" d="M879.402 83.9699H851.105V55.6384H879.402V83.9699ZM852.336 82.7382H878.172V56.8703H852.336L852.336 82.7382Z" fill="#CCCCCC"/>
</g>
</g>
</svg>
