<svg width="241" height="242" viewBox="0 0 241 242" fill="none" xmlns="http://www.w3.org/2000/svg">
<path d="M120.498 241.635C186.988 241.635 240.888 187.75 240.888 121.28C240.888 54.8108 186.988 0.926392 120.498 0.926392C54.0088 0.926392 0.108398 54.8108 0.108398 121.28C0.108398 187.75 54.0088 241.635 120.498 241.635Z" fill="#3F3D56"/>
<path d="M120.498 63.6921L72.5034 174.39L76.9837 178.869L120.51 159.677L164.036 178.869L168.517 174.39L120.498 63.6921Z" fill="#D9CDB7"/>
<path opacity="0.1" d="M120.498 0.890274C96.6753 0.878366 73.3839 7.92972 53.5701 21.1525C33.7562 34.3752 18.31 53.1753 9.18512 75.1749C0.0602181 97.1744 -2.33342 121.385 2.30691 144.745C6.94723 168.105 18.4131 189.564 35.2542 206.409C52.0954 223.253 73.5553 234.726 96.9196 239.377C120.284 244.028 144.503 241.647 166.514 232.535C188.524 223.424 207.338 207.992 220.574 188.191C233.811 168.389 240.876 145.108 240.876 121.293C240.876 89.3703 228.195 58.7547 205.622 36.1766C183.048 13.5985 152.43 0.906235 120.498 0.890274ZM120.498 225.585C99.8505 225.585 79.6667 219.463 62.4996 207.994C45.3325 196.525 31.9534 180.224 24.0546 161.152C16.1558 142.081 14.0922 121.096 18.1248 100.852C22.1573 80.6079 32.1049 62.0142 46.7092 47.4226C61.3135 32.831 79.9185 22.8971 100.171 18.8775C120.423 14.8578 141.413 16.9329 160.486 24.8404C179.558 32.7478 195.857 46.1323 207.319 63.3009C218.782 80.4696 224.894 100.651 224.882 121.293C224.879 148.967 213.88 175.506 194.304 195.073C174.729 214.641 148.18 225.633 120.498 225.633V225.585Z" fill="black"/>
</svg>
