<svg width="701" height="595" viewBox="0 0 701 595" fill="none" xmlns="http://www.w3.org/2000/svg">
<g id="undraw_Mobile_app_re_catg 1">
<g id="bordaDois">
<path id="Vector" d="M169.46 28.7903H148.677C147.618 28.7891 146.602 28.3674 145.853 27.6178C145.103 26.8682 144.682 25.8518 144.681 24.7917V3.99866C144.682 2.93852 145.103 1.92215 145.853 1.17252C146.602 0.422888 147.618 0.00121283 148.677 0H169.46C170.52 0.00121283 171.536 0.422888 172.285 1.17252C173.034 1.92215 173.456 2.93852 173.457 3.99866V24.7917C173.456 25.8518 173.034 26.8682 172.285 27.6178C171.536 28.3674 170.52 28.7891 169.46 28.7903ZM148.677 1.59946C148.042 1.60016 147.432 1.85315 146.982 2.30294C146.533 2.75272 146.28 3.36256 146.279 3.99866V24.7917C146.28 25.4278 146.533 26.0376 146.982 26.4874C147.432 26.9372 148.042 27.1902 148.677 27.1909H169.46C170.096 27.1902 170.706 26.9372 171.155 26.4874C171.605 26.0376 171.858 25.4278 171.858 24.7917V3.99866C171.858 3.36256 171.605 2.75272 171.155 2.30294C170.706 1.85315 170.096 1.60016 169.46 1.59946H148.677Z" fill="#D9CDB7"/>
</g>
<g id="bordaUm">
<path id="Vector_2" d="M411.661 152.749H390.878C389.818 152.747 388.802 152.326 388.053 151.576C387.304 150.827 386.882 149.81 386.881 148.75V127.957C386.882 126.897 387.304 125.881 388.053 125.131C388.802 124.381 389.818 123.96 390.878 123.958H411.661C412.72 123.96 413.736 124.381 414.485 125.131C415.235 125.881 415.656 126.897 415.657 127.957V148.75C415.656 149.81 415.235 150.827 414.485 151.576C413.736 152.326 412.72 152.747 411.661 152.749ZM390.878 125.558C390.242 125.559 389.632 125.812 389.183 126.261C388.733 126.711 388.48 127.321 388.48 127.957V148.75C388.48 149.386 388.733 149.996 389.183 150.446C389.632 150.896 390.242 151.149 390.878 151.149H411.661C412.296 151.149 412.906 150.896 413.356 150.446C413.805 149.996 414.058 149.386 414.059 148.75V127.957C414.058 127.321 413.805 126.711 413.356 126.261C412.906 125.812 412.296 125.559 411.661 125.558H390.878Z" fill="#D9CDB7"/>
<path id="Vector_3" d="M398.871 142.352H378.088C377.029 142.351 376.013 141.929 375.263 141.18C374.514 140.43 374.093 139.414 374.092 138.353V117.56C374.093 116.5 374.514 115.484 375.263 114.734C376.013 113.985 377.029 113.563 378.088 113.562H398.871C399.931 113.563 400.947 113.985 401.696 114.734C402.445 115.484 402.867 116.5 402.868 117.56V138.353C402.867 139.414 402.445 140.43 401.696 141.18C400.947 141.929 399.931 142.351 398.871 142.352ZM378.088 115.161C377.452 115.162 376.843 115.415 376.393 115.865C375.944 116.314 375.691 116.924 375.69 117.56V138.353C375.691 138.99 375.944 139.599 376.393 140.049C376.843 140.499 377.452 140.752 378.088 140.753H398.871C399.507 140.752 400.116 140.499 400.566 140.049C401.016 139.599 401.268 138.99 401.269 138.353V117.56C401.268 116.924 401.016 116.314 400.566 115.865C400.116 115.415 399.507 115.162 398.871 115.161H378.088Z" fill="#D9CDB7"/>
</g>
<g id="bordaTr&#195;&#170;s">
<path id="Vector_4" d="M37.5691 315.894H16.7863C15.7266 315.893 14.7108 315.471 13.9615 314.721C13.2122 313.972 12.7908 312.955 12.7896 311.895V291.102C12.7908 290.042 13.2122 289.026 13.9615 288.276C14.7108 287.526 15.7266 287.105 16.7863 287.104H37.5691C38.6287 287.105 39.6446 287.526 40.3939 288.276C41.1431 289.026 41.5646 290.042 41.5658 291.102V311.895C41.5646 312.955 41.1431 313.972 40.3939 314.721C39.6446 315.471 38.6287 315.893 37.5691 315.894ZM16.7863 288.703C16.1505 288.704 15.5409 288.957 15.0914 289.406C14.6418 289.856 14.3889 290.466 14.3882 291.102V311.895C14.3889 312.531 14.6418 313.141 15.0914 313.591C15.5409 314.041 16.1505 314.294 16.7863 314.294H37.5691C38.2049 314.294 38.8144 314.041 39.264 313.591C39.7136 313.141 39.9664 312.531 39.9671 311.895V291.102C39.9664 290.466 39.7136 289.856 39.264 289.406C38.8144 288.957 38.2049 288.704 37.5691 288.703H16.7863Z" fill="#D9CDB7"/>
<path id="Vector_5" d="M24.7796 305.497H3.9967C2.93708 305.496 1.92121 305.074 1.17195 304.325C0.422681 303.575 0.00121224 302.559 0 301.499V280.706C0.00121224 279.646 0.422681 278.629 1.17195 277.88C1.92121 277.13 2.93708 276.708 3.9967 276.707H24.7796C25.8392 276.708 26.8551 277.13 27.6043 277.88C28.3536 278.629 28.7751 279.646 28.7763 280.706V301.499C28.7751 302.559 28.3536 303.575 27.6043 304.325C26.8551 305.074 25.8392 305.496 24.7796 305.497ZM3.9967 278.306C3.36092 278.307 2.75138 278.56 2.30181 279.01C1.85225 279.46 1.59938 280.07 1.59868 280.706V301.499C1.59938 302.135 1.85225 302.745 2.30181 303.194C2.75138 303.644 3.36092 303.897 3.9967 303.898H24.7796C25.4154 303.897 26.0249 303.644 26.4745 303.194C26.924 302.745 27.1769 302.135 27.1776 301.499V280.706C27.1769 280.07 26.924 279.46 26.4745 279.01C26.0249 278.56 25.4154 278.307 24.7796 278.306H3.9967Z" fill="#D9CDB7"/>
</g>
<g id="phone">
<path id="Vector_6" d="M73.8825 68.8077H266.216C275.498 68.8077 284.502 71.9669 291.751 77.7661C299 83.5652 304.06 91.6592 306.102 100.717L403.284 531.986C404.344 536.69 404.363 541.569 403.339 546.281C402.315 550.993 400.273 555.424 397.357 559.263C394.44 563.102 390.72 566.257 386.456 568.505C382.192 570.753 377.488 572.041 372.674 572.279L174.954 582.025C164.367 582.547 153.951 579.197 145.651 572.6C137.351 566.004 131.733 556.611 129.847 546.175L74.7189 241.263L70.6176 242.436L60.0694 184.643L64.2911 183.588L48.903 98.4757C48.2439 94.8302 48.3967 91.0841 49.3506 87.5045C50.3045 83.9248 52.036 80.5998 54.4216 77.7665C56.8072 74.9331 59.7882 72.6612 63.1521 71.1127C66.5159 69.5641 70.1798 68.7771 73.8825 68.8077V68.8077Z" fill="#3F3D56"/>
<path id="Vector_7" d="M240.896 78.1047H263.347C269.795 78.1047 276.048 80.3109 281.07 84.357C286.091 88.403 289.579 94.0456 290.953 100.348L384.235 528.098C384.772 530.561 384.772 533.111 384.234 535.573C383.696 538.036 382.633 540.353 381.117 542.367C379.602 544.381 377.67 546.044 375.454 547.242C373.237 548.441 370.788 549.147 368.274 549.311L171.194 562.234C165.634 562.599 160.134 560.902 155.744 557.469C151.355 554.035 148.383 549.105 147.395 543.619L67.797 101.497C67.2818 98.6355 67.4006 95.6956 68.145 92.885C68.8895 90.0743 70.2414 87.4614 72.1054 85.2306C73.9694 82.9998 76.3 81.2054 78.9328 79.9742C81.5656 78.7429 84.4364 78.1048 87.3427 78.1048H108.641C110.703 78.1048 112.706 78.7847 114.343 80.0392C115.979 81.2937 117.156 83.0529 117.692 85.0444C118.165 86.8025 119.204 88.3556 120.649 89.4631C122.093 90.5706 123.862 91.1708 125.682 91.1708H226.793C230.357 91.1708 233.789 89.8251 236.404 87.4026C239.018 84.9802 240.623 81.6596 240.896 78.1048L240.896 78.1047Z" fill="white"/>
<path id="Vector_8" d="M83.1313 150.834H296.936L319.713 253.515L103.115 257.513L83.1313 150.834Z" fill="#D93B3A"/>
<path id="Vector_9" d="M286.164 345.287H336.499L338.098 354.928H287.763L286.164 345.287Z" fill="#F27A5F"/>
<path id="Vector_10" d="M327.118 296.105L113.643 300.628L113.664 301.633L327.14 297.111L327.118 296.105Z" fill="#2F2E41"/>
<path id="Vector_11" d="M333.647 325.755L116.153 330.781L116.176 331.786L333.67 326.76L333.647 325.755Z" fill="#2F2E41"/>
<path id="Vector_12" d="M306.947 448.452H357.282L358.881 458.093H308.546L306.947 448.452Z" fill="#F27A5F"/>
<path id="Vector_13" d="M347.901 399.271L134.425 403.794L134.447 404.799L347.922 400.276L347.901 399.271Z" fill="#2F2E41"/>
<path id="Vector_14" d="M354.43 428.921L136.936 433.946L136.959 434.951L354.453 429.926L354.43 428.921Z" fill="#2F2E41"/>
</g>
<g id="woman">
<path id="Vector_15" d="M700.201 595H395.652C395.44 595 395.236 594.916 395.086 594.766C394.937 594.616 394.852 594.412 394.852 594.2C394.852 593.988 394.937 593.785 395.086 593.635C395.236 593.485 395.44 593.401 395.652 593.401H700.201C700.413 593.401 700.616 593.485 700.766 593.635C700.916 593.785 701 593.988 701 594.2C701 594.412 700.916 594.616 700.766 594.766C700.616 594.916 700.413 595 700.201 595Z" fill="#3F3D56"/>
<path id="Vector_16" d="M492.042 584.769L482.518 584.768L477.988 548.015L492.044 548.016L492.042 584.769Z" fill="#A0616A"/>
<path id="Vector_17" d="M494.471 594.006L463.761 594.004V593.616C463.761 590.444 465.021 587.403 467.262 585.16C469.504 582.917 472.544 581.657 475.714 581.657H475.715L494.471 581.658L494.471 594.006Z" fill="#2F2E41"/>
<path id="Vector_18" d="M610.358 578.53L601.088 580.714L588.256 545.978L601.938 542.754L610.358 578.53Z" fill="#A0616A"/>
<path id="Vector_19" d="M614.838 586.963L584.946 594.006L584.857 593.627C584.131 590.54 584.66 587.291 586.328 584.594C587.996 581.897 590.666 579.973 593.752 579.246L593.753 579.245L612.01 574.944L614.838 586.963Z" fill="#2F2E41"/>
<path id="Vector_20" d="M490.096 429.749C490.114 427.833 490.681 382.632 503.065 365.541L503.248 365.289L546.406 371.246L545.441 380.733C547.34 382.58 562.271 398.191 566.583 435.158L612.392 558.248L591.096 560.185L528.055 425.816L494.695 571.875H473.583L490.096 429.749Z" fill="#2F2E41"/>
<path id="Vector_21" d="M498.01 367.209L502.228 345.049C501.403 343.986 497.743 338.878 498.558 332.89C499.089 328.984 501.42 325.559 505.486 322.707L516.421 297.179L516.569 297.093C517.305 296.659 534.716 286.586 544.207 296.089C544.445 296.274 567.815 314.834 558.43 339.871L546.845 374.648L498.01 367.209Z" fill="#CCCCCC"/>
<path id="Vector_22" d="M483.332 397.188C484.469 397.058 485.564 396.68 486.54 396.081C487.516 395.481 488.348 394.675 488.979 393.719C489.61 392.763 490.023 391.68 490.19 390.547C490.358 389.413 490.274 388.257 489.946 387.16L512.528 370.882L499.01 365.737L479.638 381.984C477.832 382.657 476.335 383.97 475.431 385.673C474.527 387.377 474.28 389.353 474.735 391.227C475.19 393.101 476.317 394.743 477.901 395.842C479.486 396.941 481.418 397.42 483.332 397.188Z" fill="#A0616A"/>
<path id="Vector_23" d="M487.482 370.855L521.958 343.68L511.708 308.645C511.225 306.986 511.089 305.245 511.307 303.531C511.526 301.817 512.094 300.167 512.978 298.682C513.797 297.283 514.898 296.069 516.212 295.121C517.526 294.172 519.024 293.508 520.609 293.171C526.511 291.922 531.869 295.228 536.53 303L536.565 303.07C537.336 304.956 555.297 349.375 541.583 358.875C528.168 368.166 497.06 381.693 496.747 381.829L496.382 381.987L487.482 370.855Z" fill="#CCCCCC"/>
<path id="Vector_24" d="M533.302 286.85C544.836 286.85 554.187 277.495 554.187 265.955C554.187 254.415 544.836 245.06 533.302 245.06C521.767 245.06 512.417 254.415 512.417 265.955C512.417 277.495 521.767 286.85 533.302 286.85Z" fill="#A0616A"/>
<path id="Vector_25" d="M566.044 258.496C576.248 258.496 584.52 250.22 584.52 240.011C584.52 229.802 576.248 221.526 566.044 221.526C555.84 221.526 547.568 229.802 547.568 240.011C547.568 250.22 555.84 258.496 566.044 258.496Z" fill="#2F2E41"/>
<path id="Vector_26" d="M581.981 255.318C579.59 257.047 576.819 258.178 573.901 258.616C570.983 259.055 568.003 258.788 565.209 257.837C562.416 256.887 559.89 255.281 557.844 253.154C555.798 251.027 554.291 248.441 553.449 245.611C553.767 248.147 554.608 250.589 555.918 252.783C557.227 254.977 558.977 256.875 561.057 258.359C563.137 259.842 565.502 260.878 568.002 261.4C570.502 261.923 573.083 261.921 575.583 261.396C578.082 260.87 580.446 259.832 582.524 258.346C584.602 256.86 586.35 254.959 587.657 252.764C588.964 250.568 589.802 248.125 590.117 245.59C590.433 243.054 590.22 240.48 589.491 238.031C589.905 241.321 589.426 244.663 588.105 247.704C586.783 250.746 584.668 253.376 581.981 255.318Z" fill="#2F2E41"/>
<path id="Vector_27" d="M509.066 255.338C512.291 249.561 513.525 247.148 517.684 243.634C521.362 240.527 525.886 239.615 529.534 242.559C533.851 240.693 538.654 240.27 543.229 241.353C547.805 242.435 551.91 244.966 554.934 248.568C557.958 252.17 559.74 256.653 560.015 261.349C560.29 266.045 559.043 270.705 556.461 274.636C553.878 278.567 550.096 281.56 545.678 283.17C541.26 284.78 536.441 284.921 531.936 283.572C527.431 282.223 523.482 279.456 520.674 275.683C517.866 271.909 516.35 267.33 516.35 262.626C516.353 261.8 516.403 260.975 516.499 260.154C513.327 259.709 512.237 255.784 509.066 255.338Z" fill="#2F2E41"/>
</g>
</g>
</svg>
