<svg width="242" height="241" viewBox="0 0 242 241" fill="none" xmlns="http://www.w3.org/2000/svg">
<path d="M120.799 240.708C187.288 240.708 241.189 186.824 241.189 120.354C241.189 53.8844 187.288 0 120.799 0C54.3095 0 0.40918 53.8844 0.40918 120.354C0.40918 186.824 54.3095 240.708 120.799 240.708Z" fill="#3F3D56"/>
<path d="M172.479 151.394C168.287 147.204 158.207 140.883 153.209 138.523C147.44 135.754 145.32 135.802 141.237 138.752C137.841 141.16 135.637 143.483 131.734 142.629C127.832 141.774 120.1 135.946 112.621 128.493C105.142 121.04 99.3366 113.359 98.5055 109.397C97.6745 105.436 99.9629 103.281 102.396 99.8857C105.334 95.8041 105.419 93.685 102.625 87.9177C100.216 82.921 93.9651 72.8674 89.7377 68.6534C85.5103 64.4393 84.595 65.3664 82.2826 66.2453C79.9028 67.2426 77.6173 68.4515 75.4538 69.8574C71.2625 72.6628 68.914 74.9986 67.264 78.5143C65.614 82.0301 63.7472 88.5559 73.3461 105.641C80.4271 118.711 89.3957 130.667 99.9629 141.123C110.458 151.712 122.459 160.694 135.576 167.781C152.654 177.413 159.194 175.498 162.711 173.861C166.228 172.223 168.564 169.9 171.359 165.674C172.768 163.512 173.977 161.227 174.972 158.847C175.767 156.535 176.706 155.596 172.479 151.394Z" fill="#D9CDB7"/>
<path opacity="0.1" d="M120.799 0.0119779C96.9735 7.16932e-05 73.6797 7.05295 53.8646 20.2783C34.0495 33.5037 18.6033 52.3074 9.48015 74.3105C0.357021 96.3136 -2.03312 120.527 2.61208 143.889C7.25729 167.25 18.7291 188.709 35.5763 205.552C52.4235 222.394 73.889 233.862 97.2573 238.506C120.626 243.15 144.847 240.76 166.856 231.64C188.866 222.52 207.675 207.078 220.904 187.269C234.134 167.459 241.189 144.173 241.177 120.354C241.161 88.4423 228.473 57.8421 205.901 35.277C183.33 12.7119 152.72 0.0279299 120.799 0.0119779ZM120.799 224.707C100.154 224.707 79.9724 218.587 62.8066 207.12C45.6408 195.654 32.2617 179.356 24.3611 160.288C16.4606 141.22 14.3934 120.238 18.4211 99.9959C22.4488 79.7534 32.3904 61.1596 46.9887 46.5656C61.587 31.9716 80.1863 22.033 100.435 18.0065C120.683 13.98 141.671 16.0466 160.745 23.9448C179.818 31.843 196.121 45.2181 207.591 62.3788C219.061 79.5395 225.183 99.7151 225.183 120.354C225.183 134.058 222.483 147.627 217.237 160.288C211.991 172.949 204.302 184.452 194.609 194.143C184.916 203.833 173.409 211.519 160.745 216.763C148.08 222.008 134.507 224.707 120.799 224.707Z" fill="black"/>
</svg>
